<?xml version="1.0" standalone="no"?>
<!DOCTYPE svg PUBLIC "-//W3C//DTD SVG 20010904//EN"
 "http://www.w3.org/TR/2001/REC-SVG-20010904/DTD/svg10.dtd">
<svg version="1.0" xmlns="http://www.w3.org/2000/svg"
 width="512.000000pt" height="512.000000pt" viewBox="0 0 512.000000 512.000000"
 preserveAspectRatio="xMidYMid meet">
<metadata>
Created by potrace 1.16, written by Peter Selinger 2001-2019
</metadata>
<g transform="translate(0.000000,512.000000) scale(0.100000,-0.100000)"
fill="#000000" stroke="none">
<path d="M2665 4928 c-11 -7 -52 -15 -91 -19 -109 -11 -196 -65 -265 -166 -22
-31 -37 -43 -55 -43 -65 0 -170 -93 -218 -193 -56 -115 -69 -231 -40 -354 34
-145 2 -217 -131 -290 -89 -49 -114 -70 -157 -127 l-29 -40 7 60 c4 32 13 79
20 104 19 64 11 60 -16 -7 -31 -80 -39 -230 -15 -293 57 -153 57 -171 -3 -222
-20 -18 -57 -54 -82 -80 -38 -39 -48 -45 -63 -37 -18 11 -48 9 -93 -6 -18 -6
-26 2 -51 47 -38 66 -129 153 -189 179 -36 17 -59 20 -112 15 -37 -3 -123 -9
-192 -14 -135 -10 -159 -17 -225 -62 -88 -60 -131 -159 -143 -327 l-7 -98
-125 -6 c-69 -3 -126 -7 -128 -8 -1 0 -11 -16 -22 -33 -37 -61 -20 -171 30
-198 13 -7 61 -8 138 -4 l118 7 23 -86 c33 -124 79 -213 149 -288 66 -71 136
-115 199 -125 34 -5 129 8 170 23 9 4 13 -5 13 -28 0 -55 35 -172 64 -215 49
-74 106 -83 187 -28 30 20 83 50 119 67 75 36 147 103 211 199 l45 67 80 -93
c83 -98 145 -208 148 -259 1 -39 -38 -64 -120 -76 l-59 -9 66 -1 c77 -1 139
18 190 59 20 16 39 26 43 23 11 -11 6 -119 -7 -165 -8 -24 -38 -79 -66 -122
-57 -84 -94 -160 -106 -216 -4 -19 -15 -53 -25 -75 -34 -78 -201 -558 -240
-692 -59 -202 -140 -579 -140 -655 0 -11 8 -18 20 -18 11 0 20 1 20 3 6 50 56
312 75 392 40 167 58 227 161 531 l96 281 51 -35 c48 -32 148 -82 165 -82 4 0
-16 16 -43 35 -169 119 -164 114 -153 146 l10 30 45 -42 c126 -116 444 -187
728 -161 154 15 304 45 407 82 74 27 173 85 198 115 19 23 27 18 43 -29 l15
-45 -41 -33 c-23 -19 -73 -56 -112 -82 -38 -27 -74 -53 -80 -59 -23 -21 86 39
158 89 49 34 79 49 82 41 2 -6 13 -48 24 -92 83 -337 90 -583 28 -952 l-23
-133 28 0 c33 0 31 -6 65 195 35 206 39 498 9 660 -41 226 -136 555 -171 595
-7 8 -26 47 -43 85 -16 39 -49 104 -73 145 -25 41 -51 91 -59 110 -18 42 -20
181 -3 201 12 14 46 180 47 231 1 19 13 37 38 58 46 38 77 87 104 164 l20 60
43 -79 c51 -95 155 -230 219 -285 26 -22 93 -72 150 -110 82 -55 111 -70 141
-70 69 0 106 46 139 175 11 44 24 106 28 138 6 53 8 58 28 53 60 -15 109 -17
156 -7 179 38 337 205 380 399 l14 62 132 0 c126 0 134 1 148 22 20 28 21 110
1 147 -18 36 -37 41 -165 41 l-105 0 -17 81 c-32 154 -120 295 -211 337 -53
25 -369 67 -430 57 -114 -19 -194 -71 -261 -168 -27 -39 -50 -60 -79 -72 -23
-9 -51 -22 -61 -27 -15 -8 -21 -6 -29 8 -5 11 -34 42 -64 71 -54 52 -118 84
-198 97 -37 7 -42 11 -63 64 -39 94 -39 104 6 180 62 102 71 131 97 306 13 88
29 185 35 215 15 77 12 236 -5 309 -51 216 -218 389 -448 467 -82 27 -187 33
-222 13z m165 -34 c154 -36 293 -131 378 -258 84 -125 121 -263 108 -400 -8
-81 -44 -282 -45 -250 -1 11 -13 54 -27 95 -18 52 -28 111 -35 199 -13 178
-35 235 -123 328 -97 103 -215 162 -325 162 -99 0 -171 -68 -171 -162 0 -43
-3 -50 -26 -59 -15 -5 -54 -13 -88 -16 -59 -6 -60 -7 -27 -16 38 -9 161 9 161
24 0 5 -4 9 -8 9 -14 0 3 96 22 124 45 69 131 83 248 42 82 -29 188 -103 230
-159 55 -75 70 -121 80 -251 6 -79 21 -168 44 -255 39 -154 42 -204 14 -287
-26 -77 -65 -124 -143 -170 -34 -21 -87 -57 -118 -81 -58 -45 -66 -48 -87 -34
-10 6 7 49 75 186 l88 179 1 82 c0 75 3 85 25 103 l24 20 -25 -5 c-20 -5 -22
-3 -10 5 11 8 11 11 2 11 -9 0 -8 8 4 32 21 40 13 168 -17 263 -36 116 -153
241 -238 252 -38 5 -101 -18 -101 -37 0 -5 -8 -16 -17 -25 -22 -23 -6 -49 33
-52 151 -13 260 -74 288 -161 8 -26 18 -68 21 -93 l7 -47 -39 -6 c-23 -4 -44
-15 -52 -28 -18 -28 -9 -32 45 -19 25 7 48 10 50 8 2 -2 -1 -17 -6 -33 -9 -25
-16 -30 -45 -31 -19 -1 -48 -8 -66 -17 -39 -20 -37 -20 -42 2 -3 9 -5 -4 -6
-29 0 -26 6 -66 14 -89 21 -59 19 -68 -17 -90 -30 -18 -31 -20 -10 -20 31 0
59 16 72 41 9 15 6 32 -9 75 -28 72 -27 75 14 58 19 -8 38 -14 42 -14 13 2 25
-63 20 -105 -5 -46 -127 -282 -166 -322 -23 -22 -32 -25 -78 -20 -65 7 -149
51 -237 123 -82 68 -114 115 -122 179 -9 85 -14 99 -27 86 -25 -25 -57 -12
-87 35 -50 79 -49 188 1 215 28 14 65 -11 74 -51 10 -45 22 -37 41 28 10 31
25 66 35 77 17 21 39 59 39 70 0 3 -18 -13 -40 -36 -33 -35 -44 -41 -70 -37
-28 4 -29 3 -14 -13 9 -10 24 -15 37 -12 20 4 21 3 4 -7 -15 -9 -29 -9 -63 0
-36 10 -45 18 -55 47 -17 53 6 172 51 263 27 53 98 128 141 151 l39 19 6 -27
c7 -30 42 -103 49 -103 2 0 -5 19 -15 43 -39 85 -20 168 56 244 66 66 101 74
214 47z m-240 -18 c0 -2 -20 -16 -44 -30 -25 -15 -48 -32 -53 -39 -4 -6 5 -4
20 6 14 9 28 17 30 17 3 0 -3 -20 -11 -44 -16 -42 -18 -44 -65 -49 -27 -2 -61
-13 -77 -25 -27 -20 -60 -21 -60 -1 0 5 26 36 58 69 44 47 70 66 112 80 52 18
90 25 90 16z m-75 -156 c3 -5 -2 -10 -12 -10 -10 0 -37 -9 -58 -20 -39 -20
-72 -20 -60 0 6 9 87 38 112 39 6 1 15 -3 18 -9z m-149 -73 c25 -13 25 -13 5
-31 -15 -14 -30 -17 -56 -13 -29 5 -40 1 -61 -21 -69 -73 -156 -236 -179 -337
-13 -55 -14 -76 -3 -133 l13 -67 5 100 c5 92 8 107 47 188 59 122 139 237 166
237 13 0 2 -25 -45 -103 -52 -86 -68 -154 -68 -289 0 -174 -36 -240 -188 -348
-106 -74 -169 -184 -188 -330 -4 -28 -10 -52 -14 -55 -4 -2 -19 30 -34 73 -29
86 -34 167 -12 211 21 39 77 86 145 121 71 35 125 96 140 155 9 35 8 61 -3
117 -26 132 -27 153 -12 228 29 139 107 263 190 302 45 20 107 19 152 -5z
m489 -81 c35 -15 70 -47 108 -100 20 -28 20 -28 -32 8 -51 34 -133 66 -173 66
-10 0 -23 -10 -28 -22 -5 -15 -9 -17 -9 -7 -1 16 34 53 59 62 25 9 39 8 75 -7z
m-609 -696 c32 -123 -29 -263 -165 -376 -36 -30 -69 -54 -73 -54 -14 0 -8 44
11 87 11 23 43 72 72 110 70 92 97 153 103 238 l5 70 -10 -63 c-12 -80 -42
-140 -118 -234 -78 -97 -104 -148 -106 -212 l-2 -51 -68 -3 -68 -3 7 62 c10
86 50 206 86 261 17 26 74 81 126 123 90 72 153 148 155 184 0 16 18 -38 45
-139z m390 -342 l61 -40 -27 -72 c-16 -39 -31 -91 -34 -116 -6 -41 -3 -37 29
40 20 47 39 93 42 103 5 17 29 22 57 11 13 -5 15 -21 10 -102 -5 -106 9 -101
22 7 l7 61 28 -23 c15 -12 39 -30 52 -39 22 -16 55 -103 43 -115 -2 -3 -44
-13 -93 -24 -75 -16 -93 -24 -123 -55 l-35 -36 31 16 c24 11 211 56 237 56 10
0 29 -172 22 -207 -10 -54 -93 -132 -180 -168 -86 -35 -101 -46 -45 -34 85 19
183 83 222 144 18 27 19 27 13 5 -10 -34 -48 -84 -86 -111 -41 -29 -140 -59
-196 -59 l-46 0 6 60 c3 34 14 75 26 95 19 33 19 35 2 26 -10 -6 -28 -29 -39
-51 l-20 -40 -11 29 c-14 32 -50 68 -96 97 l-30 19 34 -39 c43 -51 71 -111 71
-158 0 -44 -4 -45 -98 -23 -157 37 -222 101 -241 240 -10 65 -4 205 8 205 28
-2 240 -73 277 -94 38 -21 45 -23 39 -8 -5 9 -23 71 -41 137 -32 116 -82 267
-83 253 -1 -4 15 -74 34 -155 19 -81 37 -156 39 -165 3 -15 1 -16 -15 -7 -10
5 -69 23 -130 39 -61 16 -113 31 -116 34 -2 2 -1 20 2 39 5 24 17 43 41 60 40
28 84 84 84 106 0 10 -9 5 -25 -15 -13 -17 -36 -39 -50 -48 l-25 -16 0 49 c0
42 5 56 30 85 40 45 60 95 67 170 l6 62 91 -94 c50 -52 118 -112 152 -134z
m-907 -1 c14 -35 14 -47 1 -27 -22 34 -40 115 -33 150 7 32 8 30 14 -30 3 -36
11 -78 18 -93z m1417 57 c-17 -45 -16 -65 9 -124 14 -34 24 -64 22 -66 -2 -3
-46 9 -98 26 -51 16 -99 30 -106 30 -34 0 8 42 117 118 51 35 65 39 56 16z
m-941 -145 c-8 -22 -19 -57 -25 -77 -17 -62 -21 -65 -72 -48 -89 31 -117 46
-112 59 5 14 80 52 169 86 28 10 51 19 52 20 1 1 -4 -17 -12 -40z m-436 -46
c1 -7 -3 -13 -9 -13 -5 0 -10 17 -9 38 1 33 2 34 9 12 4 -14 8 -31 9 -37z
m2343 5 c27 -16 60 -44 74 -61 38 -46 92 -159 109 -229 26 -112 13 -376 -19
-365 -6 2 -27 -30 -47 -72 -41 -89 -118 -166 -175 -177 -47 -9 -52 0 -11 19
42 20 58 39 91 105 37 72 29 83 -16 23 -31 -40 -83 -81 -106 -81 -3 0 14 17
38 37 57 49 104 124 135 216 21 63 25 94 25 189 0 165 -30 260 -113 354 -22
26 -59 56 -82 66 l-40 19 45 -6 c25 -3 66 -20 92 -37z m-95 -9 c57 -27 105
-86 140 -168 26 -62 28 -75 28 -211 -1 -127 -3 -152 -23 -201 -12 -31 -35 -67
-50 -80 -18 -16 -22 -18 -10 -4 51 60 84 193 73 292 -6 55 -9 63 -28 64 -18 1
-19 2 -4 6 15 4 17 11 12 31 -12 51 -57 134 -93 169 -45 45 -88 63 -154 63
-63 0 -106 -23 -160 -83 -51 -57 -50 -24 0 40 46 57 128 103 186 103 22 0 59
-9 83 -21z m-3084 -11 c-24 -27 -52 -79 -64 -122 l-9 -29 28 26 c16 15 31 27
34 27 3 0 0 -20 -7 -45 -40 -131 -39 -411 1 -547 3 -10 1 -18 -5 -18 -6 0 -13
11 -17 25 -4 14 -9 24 -11 21 -9 -9 37 -148 68 -206 27 -52 27 -53 4 -25 -42
51 -93 157 -117 245 -20 75 -23 106 -22 265 0 166 3 186 26 258 14 42 24 77
21 77 -2 0 -16 -26 -29 -57 -73 -163 -71 -440 2 -683 15 -47 33 -98 41 -115
14 -27 14 -29 0 -15 -54 52 -124 217 -146 344 -38 211 42 492 162 570 50 32
67 34 40 4z m86 -41 c-96 -205 -75 -568 48 -822 l24 -50 -26 30 c-37 43 -100
178 -121 260 -14 54 -18 107 -18 230 0 169 12 242 56 329 17 35 56 86 64 86 2
0 -10 -29 -27 -63z m2069 37 c28 -10 52 -20 52 -24 0 -5 -64 -40 -74 -40 -5 0
-56 78 -56 86 0 3 6 3 13 1 6 -3 36 -14 65 -23z m1261 -41 c71 -87 129 -301
117 -433 -13 -149 -78 -324 -147 -397 -16 -18 -32 -33 -35 -33 -3 0 6 15 20
33 40 52 85 151 102 224 12 51 15 103 12 210 -2 79 -3 141 -1 139 2 -1 7 -36
13 -77 l9 -74 -4 70 c-4 83 -31 179 -47 169 -8 -5 -9 -2 -5 9 4 10 2 17 -4 17
-6 0 -9 7 -5 15 3 8 1 15 -5 15 -6 0 -9 7 -5 15 3 8 1 15 -5 15 -6 0 -8 4 -5
9 8 12 -4 42 -14 36 -4 -3 -11 2 -14 11 -3 8 -2 12 4 9 5 -3 7 1 4 9 -3 9 -11
14 -17 13 -6 -1 -11 3 -12 9 0 7 -11 21 -25 33 l-25 22 32 -15 c17 -9 45 -32
62 -53z m-3535 42 c-10 -8 -23 -15 -27 -15 -5 0 -39 -18 -77 -40 -54 -31 -72
-49 -88 -82 -21 -43 -42 -165 -42 -239 0 -22 -5 -39 -11 -39 -8 0 -10 30 -7
103 5 112 28 180 82 244 32 38 119 83 160 83 28 0 29 -1 10 -15z m376 -4 c0
-5 12 -11 28 -14 15 -3 43 -16 62 -29 35 -24 110 -115 109 -133 0 -5 -7 1 -17
15 -32 49 -110 118 -148 130 -34 12 -39 11 -55 -8 -24 -31 -59 -169 -66 -265
-9 -127 12 -240 81 -442 4 -11 -5 2 -19 28 -23 43 -49 67 -60 55 -2 -2 5 -37
16 -78 26 -100 20 -117 -17 -50 -81 142 -108 250 -109 425 0 145 14 224 53
305 25 50 30 56 67 61 63 10 75 10 75 0z m1799 -76 c0 -5 -6 1 -14 15 -8 14
-14 30 -14 35 0 6 6 -1 14 -15 8 -14 14 -29 14 -35z m-1016 29 c42 -7 47 -16
15 -32 -21 -11 -20 -12 9 -6 37 6 143 -15 143 -28 0 -5 -16 -66 -36 -135 -37
-132 -80 -235 -132 -316 l-30 -48 -36 55 c-23 36 -49 62 -71 73 -33 16 -38 16
-92 -2 l-58 -18 44 -13 c70 -21 84 -40 78 -101 -6 -62 -58 -194 -139 -357 -55
-110 -140 -236 -160 -236 -4 0 -6 79 -3 177 l5 176 69 96 c68 95 119 182 89
151 -8 -8 -45 -52 -82 -98 l-66 -83 0 97 0 97 39 33 c21 18 58 65 81 104 l43
71 -11 67 c-6 37 -14 100 -16 140 l-5 72 40 27 c74 49 138 57 282 37z m1335 1
c96 -29 182 -114 221 -221 22 -58 43 -174 31 -174 -4 0 -34 11 -67 24 -124 51
-214 42 -248 -25 l-17 -32 -24 41 c-37 62 -127 291 -120 308 3 7 16 14 28 14
l23 0 -25 20 c-29 22 -25 27 27 45 51 19 108 18 171 0z m-2554 -70 c-13 -31
-24 -68 -24 -83 0 -32 -29 -81 -30 -50 0 9 5 18 11 20 6 2 9 17 7 33 l-4 30
-13 -30 c-15 -37 -30 -150 -31 -236 0 -90 26 -237 60 -339 25 -74 27 -82 9
-60 -55 68 -86 185 -95 360 -8 140 7 252 42 326 14 30 28 54 30 54 3 0 3 -4
-1 -9 -3 -5 -1 -12 4 -15 5 -4 19 7 31 24 12 16 23 30 25 30 2 0 -7 -25 -21
-55z m3742 -47 c49 -96 67 -190 62 -322 -3 -67 -10 -132 -15 -145 -6 -16 -8
21 -5 117 4 109 1 157 -13 218 -14 66 -52 161 -83 209 -4 6 1 2 12 -9 10 -12
29 -42 42 -68z m-3275 30 c-17 -23 -31 -45 -31 -49 0 -4 15 -5 33 -2 27 4 39
0 63 -22 24 -22 24 -24 4 -11 -33 22 -72 20 -98 -4 -33 -31 -45 -93 -39 -210
6 -123 31 -202 82 -255 18 -20 29 -38 25 -40 -5 -3 -22 12 -39 32 -37 44 -76
160 -86 253 -11 108 28 268 80 324 37 40 40 31 6 -16z m2752 -5 c3 -5 -20 -6
-50 -5 -52 4 -55 3 -48 -17 7 -23 -12 -30 -21 -7 -3 8 -13 12 -25 9 -33 -9
-21 6 14 16 39 11 124 14 130 4z m356 -80 c20 -70 38 -225 21 -188 -5 11 -9
38 -9 60 -1 38 -22 140 -36 178 -4 9 -5 17 -1 17 3 0 14 -30 25 -67z m-529 53
c0 -2 -7 -9 -15 -16 -12 -10 -15 -10 -15 4 0 9 7 16 15 16 8 0 15 -2 15 -4z
m-132 -23 c-2 -10 -14 -20 -28 -21 -40 -6 -52 -22 -46 -61 l5 -36 -13 35 c-16
40 -5 66 35 87 34 18 51 16 47 -4z m282 7 c0 -5 -7 -7 -15 -4 -8 4 -15 8 -15
10 0 2 7 4 15 4 8 0 15 -4 15 -10z m-2437 -14 c20 -20 43 -164 30 -185 -18
-29 -27 -13 -39 71 -9 58 -17 86 -31 95 -15 12 -16 15 -3 23 20 13 26 12 43
-4z m101 5 c4 -5 13 -46 20 -91 16 -89 13 -105 -28 -159 -14 -19 -26 -40 -26
-47 0 -32 -109 -92 -118 -66 -5 16 -22 5 -22 -14 0 -8 12 -19 26 -24 26 -10
26 -12 20 -78 -4 -37 -10 -164 -14 -282 -7 -187 -11 -221 -30 -263 -31 -70
-74 -105 -139 -113 -29 -3 -53 -10 -53 -15 0 -12 22 -11 57 1 l28 10 -33 -30
c-61 -57 -105 -28 -153 98 -25 66 -34 121 -26 154 4 13 29 54 56 91 59 81 93
163 97 232 5 96 17 175 26 175 6 0 8 -26 4 -62 -3 -42 -2 -54 3 -38 5 14 9 37
10 52 1 25 4 27 39 25 l37 -2 0 44 c0 24 -5 46 -11 48 -7 2 -9 -8 -6 -27 4
-27 1 -30 -21 -30 -15 0 -27 7 -30 18 -23 70 -46 124 -46 107 -1 -11 8 -40 19
-64 29 -64 7 -72 -26 -9 -22 43 -28 254 -7 262 23 9 71 7 78 -4 12 -20 9 -108
-4 -134 -23 -43 -1 -51 132 -47 53 1 58 3 68 29 6 15 19 37 30 48 19 20 19 24
5 80 -8 33 -17 68 -21 80 -11 34 42 73 59 45z m2153 -76 c17 -99 16 -104 -6
-98 -30 8 -47 33 -61 91 -14 59 -3 85 34 80 17 -3 23 -15 33 -73z m104 58 c13
-4 18 -24 24 -100 4 -52 4 -97 0 -101 -15 -16 -33 34 -40 109 -10 113 -26 111
-23 -3 3 -77 0 -93 -12 -93 -11 0 -18 21 -26 88 -10 84 -9 89 10 103 12 8 28
11 36 8 8 -3 22 -8 31 -11z m63 -5 c8 -13 17 -60 21 -105 6 -70 5 -83 -8 -83
-17 0 -23 20 -33 110 -4 36 -11 73 -16 83 -14 26 18 22 36 -5z m85 -33 c10
-19 15 -63 15 -120 1 -103 -14 -139 -66 -157 -17 -6 -25 -13 -19 -17 7 -5 2
-16 -14 -31 -24 -22 -36 -58 -16 -45 14 8 31 -29 31 -68 0 -19 9 -97 21 -174
25 -164 21 -244 -17 -364 -19 -59 -36 -93 -59 -116 -40 -40 -52 -41 -96 -8
-19 14 -59 41 -89 61 -91 61 -155 120 -213 197 -85 113 -125 206 -142 327 l-6
45 31 -52 c62 -104 169 -200 243 -219 27 -6 28 -9 22 -45 -9 -51 8 -99 47
-135 25 -23 29 -25 23 -9 -30 80 -31 142 -4 271 11 55 23 142 27 194 l7 95 28
-27 c25 -25 27 -25 27 -7 0 12 -14 28 -35 41 -20 11 -54 46 -76 77 -21 31 -49
68 -60 82 -18 23 -22 42 -23 123 -2 56 2 100 7 103 17 11 46 -37 53 -86 7 -56
20 -75 56 -84 37 -10 60 -36 99 -117 19 -38 37 -69 42 -69 16 -2 6 40 -18 75
-14 21 -24 42 -22 48 2 6 37 12 79 14 88 3 107 16 90 59 -6 16 -14 46 -17 68
-3 22 -8 55 -11 73 -5 30 -3 33 18 30 14 -2 29 -15 37 -33z m-2546 3 c3 -13 9
-58 13 -100 6 -67 5 -78 -10 -84 -9 -4 -19 -4 -22 -2 -8 9 -27 177 -21 192 9
24 34 19 40 -6z m-67 -35 c4 -15 8 -55 8 -88 1 -49 -2 -60 -16 -63 -15 -3 -18
4 -18 45 -1 26 -7 65 -14 85 -15 41 -12 48 15 48 12 0 21 -10 25 -27z m3001 5
c-3 -8 -6 -5 -6 6 -1 11 2 17 5 13 3 -3 4 -12 1 -19z m-1336 -165 c13 -16 12
-17 -3 -4 -17 13 -22 21 -14 21 2 0 10 -8 17 -17z m1757 -19 c6 -2 12 -10 12
-19 0 -12 -13 -15 -64 -15 -107 0 -156 10 -156 32 0 17 7 18 98 12 53 -3 103
-7 110 -10z m-1269 -13 c45 -24 102 -85 132 -143 18 -36 21 -53 16 -118 -3
-41 -14 -106 -24 -145 -18 -64 -21 -70 -44 -67 -33 5 -94 48 -136 97 -108 125
-170 338 -111 379 32 23 120 21 167 -3z m1311 -2 c0 -11 -4 -17 -10 -14 -5 3
-10 13 -10 21 0 8 5 14 10 14 6 0 10 -9 10 -21z m-4282 -25 l3 -31 -132 -6
c-73 -4 -134 -6 -135 -4 -1 1 -5 16 -8 34 -9 39 -3 41 154 39 l115 -1 3 -31z
m36 14 c9 -36 7 -88 -4 -88 -5 0 -10 11 -10 24 0 13 -3 38 -6 55 -7 36 10 43
20 9z m2497 -20 c16 -29 2 -21 -22 15 -17 23 -18 28 -6 18 10 -8 23 -23 28
-33z m-2821 -40 c0 -42 -13 -69 -27 -54 -13 13 -15 97 -3 111 19 23 30 2 30
-57z m2866 -39 c14 -28 24 -53 22 -55 -2 -2 -16 21 -31 51 -15 30 -25 55 -22
55 3 0 16 -23 31 -51z m-2671 -40 c-58 -12 -178 -11 -170 1 4 6 50 10 108 9
81 -1 94 -3 62 -10z m159 -90 c10 -36 28 -90 41 -118 32 -69 12 -55 -24 17
-34 67 -63 160 -55 174 10 16 20 -3 38 -73z m1280 -12 c-8 -89 12 -169 59
-240 28 -42 93 -94 137 -110 13 -5 13 -5 0 -6 -33 -1 -107 48 -141 92 -51 68
-74 138 -74 227 0 70 7 110 20 110 2 0 2 -33 -1 -73z m2593 41 c-3 -8 -6 -5
-6 6 -1 11 2 17 5 13 3 -3 4 -12 1 -19z m-1320 -30 c-3 -7 -5 -2 -5 12 0 14 2
19 5 13 2 -7 2 -19 0 -25z m-2 -154 c-21 -72 -86 -143 -158 -174 -59 -26 -106
-27 -362 -12 l-160 10 240 -1 c224 -1 243 0 286 20 92 42 146 123 158 237 6
57 6 58 9 18 2 -23 -4 -68 -13 -98z m-1329 -5 c8 -35 28 -90 44 -123 16 -34
38 -87 48 -118 23 -70 14 -67 -70 19 -58 59 -88 113 -88 157 0 26 40 139 47
132 2 -2 11 -32 19 -67z m-1035 -155 c63 -22 114 -19 199 10 40 14 75 26 77
26 2 0 -7 -15 -21 -33 -15 -19 -26 -39 -26 -44 0 -16 -27 -24 -101 -30 -57 -5
-74 -2 -126 21 -37 17 -79 47 -109 78 l-49 51 56 -32 c31 -17 76 -38 100 -47z
m1032 -100 c34 -31 79 -68 99 -82 26 -19 40 -37 44 -60 8 -39 -8 -100 -34
-132 -18 -22 -18 -22 -36 41 -22 82 -55 138 -126 214 -32 34 -65 73 -74 87
-15 24 -15 27 0 55 l18 30 24 -49 c13 -26 51 -73 85 -104z m2297 146 c-8 -5
-19 -10 -25 -10 -5 0 -3 5 5 10 8 5 20 10 25 10 6 0 3 -5 -5 -10z m-2110 -141
c0 -5 -7 -9 -15 -9 -8 0 -15 7 -15 15 0 9 6 12 15 9 8 -4 15 -10 15 -15z m602
14 c-40 -2 -103 -2 -140 0 -37 2 -4 3 73 3 77 0 107 -2 67 -3z m-219 -10 c-7
-2 -21 -2 -30 0 -10 3 -4 5 12 5 17 0 24 -2 18 -5z m-338 -47 c-54 -13 -60
-13 -50 3 3 6 27 11 53 10 l47 -1 -50 -12z m194 -15 c10 -6 6 -11 -15 -20 -26
-10 -24 -10 19 -5 152 18 231 24 307 23 47 -1 77 -3 68 -6 -13 -3 -18 -15 -18
-43 0 -21 -5 -42 -11 -46 -6 -3 -76 -10 -156 -15 -125 -7 -276 -27 -349 -45
-17 -5 -24 5 -48 66 -16 39 -27 73 -25 74 27 22 199 35 228 17z m623 -157 c47
-9 88 -23 96 -32 6 -9 12 -43 12 -78 0 -99 17 -156 77 -256 67 -111 105 -200
101 -237 -6 -52 -203 -154 -407 -210 -122 -34 -271 -46 -395 -32 -94 10 -240
42 -252 53 -2 3 3 24 11 48 21 58 19 115 -6 189 -12 34 -23 61 -24 59 -2 -2 0
-34 5 -72 4 -37 6 -102 3 -143 -6 -74 -6 -74 -32 -68 -50 13 -173 79 -188 101
-30 47 8 152 103 282 62 86 77 140 72 260 l-3 83 35 9 c48 12 227 37 326 46
75 6 83 5 103 -15 11 -11 21 -29 21 -38 0 -40 -24 -98 -50 -125 -30 -30 -30
-34 0 -18 16 9 19 3 30 -58 6 -37 17 -80 24 -97 12 -26 13 -11 12 120 -1 197
7 213 119 238 44 10 129 6 207 -9z m-906 -92 c-18 -16 -18 -16 -6 6 6 13 14
21 18 18 3 -4 -2 -14 -12 -24z m1213 -645 c-42 -38 -109 -84 -109 -74 0 2 27
23 61 48 33 24 65 52 71 62 5 10 13 16 16 12 4 -4 -14 -26 -39 -48z m-109 2
c-14 -12 -51 -34 -82 -50 -306 -155 -704 -167 -983 -30 -44 22 -91 49 -105 61
-23 20 -21 20 20 -3 118 -64 314 -119 475 -132 196 -16 454 41 630 139 71 40
78 42 45 15z"/>
<path d="M2520 4454 c-33 -14 -77 -24 -110 -25 -50 -1 -52 -2 -25 -10 17 -5
47 -7 67 -4 42 6 128 44 128 57 0 4 -1 7 -2 7 -2 -1 -28 -12 -58 -25z"/>
<path d="M2490 4385 c-19 -14 -29 -25 -23 -25 7 0 25 11 40 25 36 31 28 31
-17 0z"/>
<path d="M2610 4302 c-28 -13 -60 -37 -60 -44 0 -3 18 1 41 10 40 15 43 15 85
-7 24 -13 44 -27 44 -31 0 -5 -19 -6 -42 -4 l-43 4 45 -13 c25 -7 63 -23 85
-35 42 -23 55 -18 55 24 0 45 -162 119 -210 96z"/>
<path d="M2300 4141 c-13 -26 -13 -52 1 -28 5 9 16 17 24 17 22 0 28 -20 11
-39 -19 -21 -21 -72 -4 -89 25 -25 27 -18 27 88 0 32 -22 70 -40 70 -5 0 -13
-9 -19 -19z"/>
<path d="M2570 4153 c0 -2 12 -19 26 -38 29 -38 68 -55 129 -55 59 0 64 20 17
65 -35 33 -40 35 -104 34 -38 -1 -68 -4 -68 -6z m168 -64 c12 -18 11 -20 -5
-17 -10 2 -19 11 -21 21 -5 23 10 21 26 -4z"/>
<path d="M2450 4015 c0 -22 46 -117 66 -136 23 -21 21 -15 -15 59 -36 71 -51
95 -51 77z"/>
<path d="M2785 3898 c-4 -9 -4 -22 0 -28 11 -18 85 -9 85 11 0 14 -48 11 -56
-3 -6 -9 -10 -5 -15 12 -5 21 -7 22 -14 8z"/>
<path d="M2750 3779 c-14 -6 -32 -8 -41 -6 -9 3 -23 1 -30 -3 -8 -6 1 -11 27
-16 21 -3 70 -14 108 -24 64 -16 68 -18 47 -29 -27 -15 -74 -6 -120 22 -23 14
-32 16 -26 6 30 -52 94 -87 140 -75 30 8 62 85 47 112 -12 21 -111 29 -152 13z"/>
<path d="M1850 2965 l-55 -13 41 -1 c22 0 49 6 60 14 10 8 17 14 14 14 -3 -1
-30 -7 -60 -14z"/>
<path d="M3307 3279 c54 -27 109 -83 151 -156 l34 -58 -5 42 c-7 61 -64 135
-129 167 -29 14 -61 26 -72 26 -15 -1 -8 -7 21 -21z"/>
<path d="M1431 2644 c-13 -43 -59 -187 -102 -319 -44 -131 -79 -244 -79 -249
0 -5 9 -1 19 8 31 28 78 126 100 206 28 103 92 412 88 424 -2 5 -14 -26 -26
-70z"/>
<path d="M3877 2473 c-4 -159 -11 -260 -21 -303 -8 -36 -15 -69 -16 -74 0 -17
12 2 25 41 l14 38 1 -41 c0 -55 -35 -90 -82 -80 -25 5 -30 4 -21 -5 25 -25 73
-14 110 23 44 44 62 124 62 273 1 163 -32 365 -59 365 -4 0 -10 -107 -13 -237z"/>
<path d="M2881 1970 c-1 -46 -34 -98 -74 -116 l-32 -15 35 6 c65 10 100 67 81
130 l-9 30 -1 -35z"/>
<path d="M2182 1955 c-7 -22 -12 -62 -12 -90 0 -50 3 -57 62 -141 15 -22 41
-89 59 -152 18 -61 34 -111 36 -109 2 2 -5 60 -16 130 -19 125 -23 138 -76
231 -18 32 -31 70 -35 110 l-6 61 -12 -40z"/>
<path d="M2970 1823 c-38 -82 -45 -108 -47 -167 l-2 -71 13 60 c7 33 27 88 44
123 27 52 54 152 41 152 -2 0 -24 -44 -49 -97z"/>
<path d="M2820 1640 c-1 -41 -5 -99 -9 -127 -4 -29 -6 -53 -4 -53 1 0 10 17
19 38 19 42 22 153 6 192 -9 21 -11 12 -12 -50z"/>
<path d="M2546 1568 c-9 -12 -16 -29 -16 -38 0 -24 29 -60 48 -60 47 0 63 67
26 104 -21 22 -40 20 -58 -6z"/>
<path d="M3041 1493 c-7 -39 -11 -82 -9 -95 2 -13 9 8 17 49 7 39 11 82 9 95
-2 13 -9 -8 -17 -49z"/>
<path d="M1764 3978 l-29 -33 33 29 c30 28 37 36 29 36 -2 0 -16 -15 -33 -32z"/>
<path d="M1930 1061 c29 -23 137 -77 195 -98 53 -19 120 -33 109 -24 -8 7
-201 91 -294 128 l-35 14 25 -20z"/>
<path d="M3128 981 c-160 -84 -185 -100 -119 -76 77 27 271 135 271 150 0 6
17 15 -152 -74z"/>
<path d="M1965 934 c107 -52 262 -111 271 -102 12 13 -341 161 -375 157 -3 0
44 -25 104 -55z"/>
<path d="M3130 931 c-87 -55 -252 -181 -236 -181 13 0 290 194 331 231 21 20
-6 6 -95 -50z"/>
<path d="M1940 855 c0 -7 154 -96 292 -169 110 -58 236 -111 244 -103 4 4
-183 112 -303 175 -98 50 -233 107 -233 97z"/>
<path d="M2669 569 c-63 -44 -122 -85 -131 -90 -21 -11 -56 -85 -147 -306
l-70 -173 53 0 c42 0 55 4 61 18 4 9 25 69 47 131 64 184 60 183 92 24 35
-177 34 -173 57 -173 17 0 20 5 15 27 -16 78 -36 217 -42 288 -10 125 2 155
103 253 47 45 83 82 80 82 -2 0 -55 -36 -118 -81z"/>
<path d="M3276 341 c-4 -38 -18 -118 -32 -177 -37 -164 -37 -164 -26 -164 6 0
15 15 20 33 22 69 62 377 49 377 -2 0 -7 -31 -11 -69z"/>
<path d="M2631 245 c-1 -17 8 -77 19 -135 11 -58 20 -106 20 -107 0 -2 7 -3
15 -3 8 0 15 6 15 13 0 30 -68 259 -69 232z"/>
</g>
</svg>