<?xml version="1.0" standalone="no"?>
<!DOCTYPE svg PUBLIC "-//W3C//DTD SVG 20010904//EN"
 "http://www.w3.org/TR/2001/REC-SVG-20010904/DTD/svg10.dtd">
<svg version="1.0" xmlns="http://www.w3.org/2000/svg"
 width="512.000000pt" height="512.000000pt" viewBox="0 0 512.000000 512.000000"
 preserveAspectRatio="xMidYMid meet">
<metadata>
Created by potrace 1.16, written by Peter Selinger 2001-2019
</metadata>
<g transform="translate(0.000000,512.000000) scale(0.100000,-0.100000)"
fill="#000000" stroke="none">
<path d="M1895 4890 c-32 -17 -84 -36 -116 -44 -88 -20 -121 -50 -152 -139
-36 -102 -35 -140 4 -180 39 -38 70 -132 71 -212 0 -47 6 -67 24 -92 18 -24
24 -44 24 -85 0 -44 7 -65 35 -112 19 -32 57 -121 85 -197 72 -203 83 -219
147 -219 28 0 31 -6 96 -170 37 -94 67 -178 67 -187 0 -13 -8 -15 -57 -9 -95
11 -199 74 -126 77 16 1 21 3 11 6 -15 4 -17 16 -11 121 3 64 9 121 14 127 5
5 9 13 9 17 0 14 -218 -170 -256 -217 -35 -41 -37 -42 -111 -48 -102 -8 -185
-48 -251 -123 -137 -154 -177 -352 -111 -547 l32 -93 -36 -51 c-67 -92 -80
-135 -87 -273 -7 -139 2 -117 -124 -335 -59 -101 -120 -257 -140 -358 -13 -62
-16 -135 -15 -340 1 -322 -2 -349 -47 -384 -19 -14 -34 -33 -34 -42 0 -14 2
-14 10 -1 7 11 10 4 10 -27 0 -48 -17 -67 -23 -26 -2 16 -2 -6 0 -47 2 -41 9
-87 15 -102 10 -28 -5 -143 -37 -281 -14 -59 -13 -61 14 -116 16 -31 35 -76
42 -100 14 -48 55 -81 99 -81 21 1 18 5 -23 28 -39 22 -51 36 -66 77 -11 28
-28 69 -39 93 -16 35 -18 51 -10 85 5 22 20 106 33 186 27 160 34 174 101 187
64 12 94 -5 146 -81 60 -88 74 -133 58 -191 -11 -38 -11 -76 2 -229 2 -18 -1
-29 -9 -28 -6 1 -17 -5 -24 -13 -11 -13 -9 -14 17 -9 28 6 28 6 10 -9 -11 -9
-28 -16 -39 -16 -11 0 -15 -4 -11 -11 4 -7 22 -9 46 -6 27 4 38 2 35 -6 -7
-23 -54 -19 -86 9 -23 19 -30 32 -25 46 4 13 2 18 -4 14 -5 -3 -12 4 -16 17
-10 36 -7 132 4 143 8 8 0 24 -26 55 -34 40 -37 42 -30 16 6 -26 5 -27 -14
-17 -20 11 -21 10 -10 -9 6 -12 15 -21 20 -21 6 0 10 -5 10 -11 0 -5 -4 -8 -9
-5 -5 3 -11 -2 -13 -12 -3 -10 -20 -26 -39 -35 -19 -9 -29 -17 -22 -17 33 0
64 -89 31 -90 -8 -1 -5 -6 6 -15 10 -7 15 -18 12 -23 -3 -6 8 -15 24 -21 17
-5 30 -15 30 -22 0 -7 3 -9 7 -6 3 4 30 -6 60 -23 65 -37 76 -37 98 -4 14 22
15 33 7 63 -26 86 -33 218 -17 312 8 53 -19 131 -61 170 -13 12 -24 32 -24 44
0 38 37 131 81 205 23 39 42 79 43 88 0 9 28 52 61 95 171 223 192 259 230
395 13 48 35 119 49 157 19 53 26 90 26 151 0 77 1 82 38 131 20 28 48 74 62
103 l24 52 19 -89 c15 -71 19 -139 21 -363 2 -233 5 -281 19 -314 26 -59 21
-112 -23 -247 -22 -68 -61 -198 -85 -289 -25 -91 -53 -185 -61 -208 -11 -30
-13 -47 -6 -54 7 -7 4 -28 -10 -67 -25 -73 -98 -355 -92 -360 9 -9 17 13 55
160 21 85 46 175 55 201 l16 48 44 -30 c61 -43 164 -85 270 -111 49 -12 92
-27 96 -33 4 -6 8 -30 8 -54 0 -53 6 -54 -182 37 -75 36 -132 60 -126 53 44
-51 282 -192 326 -192 12 0 13 14 7 80 l-7 80 24 0 c24 0 25 -3 31 -87 4 -49
10 -99 14 -112 6 -24 5 -24 -45 -17 -58 7 -155 42 -242 86 -33 17 -60 28 -60
26 0 -2 36 -34 80 -70 l79 -66 257 0 257 0 131 76 c218 127 236 138 233 141
-4 3 -328 -112 -454 -161 -51 -20 -103 -36 -116 -36 -31 0 -37 20 -37 128 l0
82 40 0 c34 0 40 -3 40 -21 0 -17 4 -20 23 -15 42 10 377 65 557 90 96 14 189
28 205 32 l30 6 24 -144 c30 -188 27 -178 63 -178 l31 0 -8 53 c-17 126 -23
193 -16 205 4 7 13 -35 20 -94 20 -178 13 -164 91 -164 l67 0 -23 73 c-21 61
-64 258 -64 288 0 5 4 9 9 9 5 0 11 -21 15 -47 5 -41 54 -249 72 -305 11 -37
31 -18 38 35 10 83 6 145 -13 252 -10 55 -17 103 -15 107 7 11 -45 349 -66
430 -32 125 -87 248 -156 352 -43 65 -48 107 -36 272 12 154 20 173 117 289
89 107 171 231 204 310 15 36 30 67 33 70 3 3 17 -13 33 -35 33 -48 81 -86
160 -125 l60 -30 5 -95 c3 -52 2 -129 -3 -170 -12 -101 -3 -242 21 -315 10
-34 44 -105 75 -159 69 -121 81 -170 74 -295 -4 -73 -13 -121 -38 -195 -31
-91 -38 -102 -87 -145 -130 -111 -202 -242 -201 -366 0 -53 -16 -135 -36 -187
-5 -13 -2 -18 9 -18 9 0 15 3 15 8 -8 51 17 67 55 34 21 -17 21 -17 2 6 -11
12 -26 22 -34 22 -9 0 -12 6 -7 18 3 9 10 63 15 120 11 141 36 189 158 311 84
82 97 101 118 160 38 110 54 191 54 282 0 105 -14 155 -75 260 -26 45 -56 107
-67 138 -39 112 -33 355 13 475 10 28 19 65 19 82 0 17 9 80 20 139 10 60 18
111 16 112 -2 2 -17 -24 -35 -57 -38 -72 -58 -84 -125 -78 -77 6 -131 49 -217
169 -98 137 -155 240 -184 332 -30 94 -31 141 -5 184 26 43 55 49 170 35 52
-7 108 -12 125 -12 25 0 27 2 15 14 -8 8 -71 47 -140 86 -69 40 -152 91 -185
115 -33 23 -67 45 -75 50 -14 7 60 -75 105 -117 20 -19 20 -19 -5 -13 -45 11
-166 74 -186 96 -20 24 -16 22 50 -19 22 -14 56 -31 75 -39 34 -13 35 -13 16
2 -11 9 -53 35 -92 57 -40 22 -75 44 -79 49 -3 5 -10 9 -16 9 -7 0 -7 -4 1
-13 6 -8 18 -31 27 -52 l16 -38 -55 49 c-91 81 -147 231 -132 348 9 64 42 143
63 151 41 16 160 17 232 2 41 -9 104 -19 140 -22 89 -9 158 -44 224 -115 102
-111 151 -249 144 -407 -4 -103 1 -102 31 7 47 168 5 326 -116 441 -74 70
-138 97 -267 111 -58 7 -106 16 -106 21 0 10 129 1 199 -14 118 -26 231 -117
293 -236 73 -140 81 -268 25 -403 -19 -47 -33 -87 -31 -89 3 -3 24 14 47 37
l43 43 53 -56 c73 -77 111 -162 127 -286 8 -63 20 -114 33 -137 23 -40 66
-128 141 -292 39 -85 56 -140 87 -285 36 -169 38 -190 38 -350 -1 -152 -5
-192 -37 -370 -20 -110 -40 -227 -44 -260 -3 -33 -10 -67 -15 -75 -6 -10 -7 0
-4 25 20 155 67 599 72 685 10 186 -24 383 -88 512 -18 35 -45 89 -61 121 -18
36 -59 90 -109 140 -52 52 -68 66 -46 37 19 -25 54 -76 78 -115 23 -38 59 -89
80 -111 34 -38 38 -48 44 -119 4 -44 3 -131 -4 -204 -7 -69 -12 -173 -11 -231
0 -92 -20 -271 -36 -322 -8 -26 7 -22 45 13 l34 31 -7 -89 c-9 -114 -34 -209
-84 -319 -23 -49 -47 -110 -53 -136 l-13 -47 -30 16 -30 16 27 -32 c15 -18 27
-44 27 -57 0 -51 58 -124 98 -124 13 0 22 -3 20 -7 -1 -5 -25 -48 -53 -98 -49
-89 -50 -91 -50 -176 0 -75 -2 -85 -16 -82 -9 3 -20 0 -23 -6 -9 -14 -26 -14
-26 0 0 5 5 7 10 4 6 -3 10 -3 11 2 4 46 11 94 19 123 6 19 10 40 9 45 -1 18
-27 -59 -28 -83 -1 -25 -45 -100 -70 -119 -13 -10 -17 -8 -23 10 -3 12 -7 40
-8 62 -1 35 -3 37 -9 15 -5 -14 -11 -47 -15 -73 l-7 -47 134 0 134 0 13 27
c16 36 39 225 40 331 0 75 3 87 27 119 25 32 28 45 28 107 0 39 -6 90 -14 113
-17 52 -6 150 39 343 71 305 76 414 30 675 -33 186 -35 210 -19 182 6 -10 25
-89 41 -175 41 -211 42 -357 4 -522 -38 -167 -39 -172 -12 -98 33 91 56 233
56 346 0 122 -42 381 -80 492 -61 180 -114 359 -155 526 -53 210 -85 276 -198
403 -107 121 -115 134 -123 200 -16 136 -75 254 -171 342 -87 81 -156 108
-305 118 l-106 7 -56 51 c-32 29 -94 70 -148 97 -95 47 -254 106 -285 106 -34
0 -139 57 -168 91 -33 40 -66 110 -95 208 -21 67 -21 73 -6 118 20 58 20 104
1 168 -10 32 -16 94 -16 172 -1 117 -3 125 -30 168 -30 47 -96 96 -157 116
-19 6 -51 22 -70 35 -52 36 -126 54 -218 54 -72 0 -89 -4 -139 -30z m200 -10
c22 -6 9 -8 -48 -9 -63 -1 -92 -7 -149 -31 -38 -16 -76 -30 -84 -30 -7 0 -29
-14 -48 -31 -35 -30 -43 -55 -49 -145 -2 -27 -5 -30 -19 -23 -36 19 -48 41
-48 88 0 26 6 55 13 64 10 14 12 8 12 -43 0 -43 5 -64 18 -77 16 -16 17 -15
17 38 0 76 29 119 90 137 25 7 63 22 85 33 69 35 144 46 210 29z m-5 -101 c64
-33 53 -38 -20 -9 -55 22 -142 26 -186 10 -15 -6 -44 -24 -65 -41 -43 -34 -59
-84 -41 -131 15 -41 4 -34 -14 7 -43 104 83 215 226 198 25 -3 70 -18 100 -34z
m276 5 c22 -8 56 -31 75 -52 28 -31 29 -32 4 -10 -43 38 -113 68 -162 68 -23
0 -44 4 -47 9 -8 12 82 2 130 -15z m-498 -51 c-27 -15 -53 -39 -62 -57 -18
-36 -22 -10 -5 28 12 27 61 56 94 56 13 0 4 -9 -27 -27z m26 -39 c-10 -14 -21
-42 -25 -62 -6 -35 -7 -35 -8 -7 -1 27 31 95 44 95 3 0 -2 -12 -11 -26z m-232
-98 c12 -9 38 -17 58 -17 l35 -1 -30 -8 c-18 -5 -23 -8 -11 -9 11 0 17 -4 13
-7 -8 -9 -78 -14 -73 -5 3 4 -4 20 -15 37 -10 16 -19 38 -18 49 0 19 1 19 9
-1 5 -12 19 -29 32 -38z m483 45 c-3 -2 7 -17 22 -33 21 -22 28 -40 31 -88 4
-56 7 -61 39 -82 26 -15 45 -41 69 -93 38 -79 79 -261 69 -311 -7 -38 -67
-132 -73 -114 -4 12 0 40 29 211 14 80 1 104 -21 41 -10 -27 -34 -73 -54 -103
-30 -45 -36 -62 -36 -106 0 -29 -4 -53 -9 -53 -4 0 -20 17 -35 38 -14 20 -45
53 -69 71 -23 19 -34 26 -25 15 16 -19 15 -19 -33 -16 -27 2 -49 8 -49 13 0 5
5 9 11 9 20 0 5 55 -16 58 -16 3 -18 1 -7 -9 6 -7 12 -18 12 -24 0 -13 -104
-36 -128 -28 -16 5 -16 4 -1 -11 9 -9 25 -18 36 -19 19 -1 19 -2 -4 -35 -12
-19 -23 -47 -23 -61 -1 -21 -6 -16 -28 29 -15 30 -40 73 -55 95 -22 33 -27 50
-27 102 0 34 -4 65 -10 68 -5 3 -14 14 -19 24 -9 15 -6 17 22 13 18 -3 26 -7
20 -9 -7 -3 -13 -10 -13 -17 0 -7 18 -11 50 -11 49 0 50 -1 51 -30 2 -26 2
-27 6 -6 7 38 -6 91 -23 91 -8 0 -17 7 -20 15 -4 11 -21 15 -59 15 l-52 0 -7
53 c-11 92 -7 140 14 175 17 28 25 32 64 32 32 0 58 8 93 30 53 33 180 70 230
68 18 -1 30 -4 28 -7z m345 -158 c-1 -51 -4 -73 -10 -63 -8 14 -2 140 6 140 2
0 4 -35 4 -77z m-803 -5 c-3 -7 -5 -2 -5 12 0 14 2 19 5 13 2 -7 2 -19 0 -25z
m807 -101 c36 -48 42 -87 20 -147 -23 -63 -49 -93 -75 -85 -15 5 -19 2 -19
-14 0 -24 37 -30 58 -9 16 16 20 11 43 -73 23 -85 70 -177 105 -210 14 -13 51
-37 82 -54 45 -24 58 -36 60 -57 5 -39 -76 -238 -109 -269 -23 -21 -315 -179
-332 -179 -2 0 2 37 9 83 26 157 14 154 -31 -10 -26 -96 -29 -102 -57 -108
-39 -9 -43 -3 -23 35 18 35 19 32 -43 104 -33 37 -95 159 -108 211 -5 21 -3
25 18 25 17 0 27 -8 35 -29 11 -29 40 -54 79 -65 20 -6 25 1 49 63 14 39 48
100 74 135 104 141 115 164 118 240 1 47 0 62 -6 46 -6 -21 -10 -13 -24 50
-17 81 -37 222 -37 257 0 24 57 93 76 93 7 0 24 -15 38 -33z m-205 -441 c-13
-98 -31 -125 -43 -65 -12 64 -8 87 22 102 15 8 27 15 28 16 0 1 -3 -23 -7 -53z
m-254 -7 c-65 -9 -123 -31 -118 -46 3 -9 16 -8 51 3 26 8 73 21 104 28 l58 14
21 -29 c11 -16 23 -44 26 -63 4 -29 1 -39 -22 -60 -14 -14 -33 -22 -41 -19 -8
3 -14 0 -14 -7 0 -6 -6 -10 -12 -7 -7 2 -18 -3 -25 -12 -11 -14 -12 -14 -13 2
0 23 -18 13 -30 -17 -9 -21 -9 -21 -9 2 -1 19 -5 22 -22 17 -18 -6 -19 -5 -10
13 8 14 29 24 68 32 l57 12 -31 13 c-39 17 -48 32 -31 52 11 15 11 16 -7 9
-10 -4 -38 -10 -61 -13 l-42 -5 26 -24 c26 -22 26 -24 10 -40 -17 -17 -18 -17
-33 1 -8 11 -20 37 -27 58 -9 32 -9 43 6 73 14 30 19 34 32 23 12 -10 16 -9
20 8 5 19 7 19 62 4 l57 -16 -50 -6z m843 -183 c8 -9 -43 -130 -91 -214 -40
-71 -45 -76 -147 -136 -191 -115 -324 -185 -384 -202 -103 -29 -254 -3 -310
53 -31 30 -34 83 -12 176 l14 59 -32 -29 c-17 -16 -57 -48 -89 -72 -32 -24
-56 -45 -54 -48 3 -2 33 16 67 42 35 25 64 44 66 43 1 -2 -2 -23 -7 -48 -14
-63 -12 -91 10 -120 39 -53 140 -90 247 -90 l61 0 -22 -94 c-33 -134 -75 -383
-75 -440 0 -96 86 -163 272 -212 129 -35 295 -43 369 -19 77 25 184 82 258
138 72 54 68 55 102 -33 11 -30 49 -107 84 -171 72 -129 115 -234 115 -280 0
-36 -25 -86 -78 -157 l-41 -54 -5 44 c-3 24 -8 63 -9 88 -2 25 -4 -5 -5 -66
l-2 -111 -37 -49 c-20 -27 -67 -81 -105 -120 -37 -40 -68 -74 -68 -77 0 -2 29
10 63 29 54 28 66 39 75 71 7 21 57 94 112 163 104 130 185 272 196 341 7 44
10 46 41 20 22 -18 22 -20 7 -62 -32 -93 -126 -240 -239 -374 -59 -70 -83
-121 -90 -196 -15 -158 -12 -149 -77 -212 -34 -31 -59 -59 -57 -62 3 -2 28 13
56 35 28 21 54 36 57 33 12 -12 5 -85 -10 -116 -9 -18 -33 -54 -53 -82 l-36
-50 38 30 c20 17 47 50 60 75 21 44 22 44 25 16 2 -19 -12 -58 -42 -118 -50
-98 -53 -107 -31 -88 29 24 59 73 80 132 l21 58 45 -77 c60 -105 116 -272 139
-418 26 -157 26 -153 -16 -171 -20 -8 -38 -14 -39 -12 -2 2 -13 60 -25 128
-27 165 -41 232 -46 228 -2 -3 10 -82 26 -177 17 -95 30 -178 30 -183 0 -10
19 -8 80 8 17 5 22 4 15 -4 -21 -23 -385 -97 -595 -122 -158 -18 -482 -24
-615 -11 -194 20 -470 94 -505 136 -13 15 15 124 102 404 46 146 43 145 78 23
12 -41 23 -72 25 -70 4 4 -21 205 -30 241 -4 15 -5 27 -2 27 2 0 23 -30 45
-67 89 -147 90 -122 3 49 l-91 177 1 207 0 207 31 -34 c26 -30 28 -31 13 -6
-31 54 -85 310 -85 410 l0 38 23 -21 c26 -25 57 -44 57 -34 0 3 -14 22 -31 42
-41 47 -55 83 -62 165 -8 83 1 85 74 20 l53 -48 -25 37 c-14 21 -47 54 -72 73
-26 20 -47 39 -47 43 0 4 33 8 73 8 39 1 99 10 132 21 l59 19 -84 1 c-112 3
-164 16 -230 61 -98 66 -146 179 -136 320 3 49 12 82 31 116 15 27 22 45 16
42 -17 -11 -14 -1 18 62 34 67 101 138 183 193 72 49 75 59 6 20 -122 -70
-183 -146 -244 -301 -24 -63 -34 -106 -35 -147 0 -48 -2 -54 -10 -33 -19 47
11 201 57 291 13 26 66 92 117 147 52 56 94 107 94 116 0 8 13 29 29 48 44 51
178 161 182 150 1 -5 -4 -56 -13 -112 -8 -57 -15 -112 -15 -122 0 -41 153 -85
261 -75 49 4 87 19 212 82 178 91 250 135 271 167 8 13 33 68 56 122 32 76 41
109 38 141 l-3 43 43 -14 c24 -7 47 -15 50 -18z m170 -73 c108 -51 202 -120
202 -148 0 -13 -44 -25 -89 -25 l-26 1 28 15 c15 8 27 19 27 24 0 24 -124 106
-236 156 -30 13 -54 28 -54 34 0 13 15 7 148 -57z m-60 -29 c34 -19 60 -40 56
-45 -3 -5 -21 -33 -39 -60 -18 -28 -43 -79 -56 -112 -12 -34 -25 -66 -29 -70
-6 -7 -37 8 -137 70 l-22 13 29 50 c16 27 45 84 64 126 40 86 32 84 134 28z
m-112 -304 c8 -14 13 -17 16 -9 11 33 26 -9 30 -83 5 -89 21 -136 90 -262 21
-37 39 -75 40 -83 2 -8 22 -35 46 -59 77 -78 28 -47 -59 39 -47 45 -95 102
-107 127 -13 25 -17 37 -10 26 47 -69 101 -136 110 -136 5 0 -1 14 -14 31
-107 142 -123 176 -137 299 -8 73 -8 74 -9 20 -1 -30 3 -74 8 -98 6 -23 12
-59 15 -79 7 -56 80 -168 158 -244 l72 -69 -71 -68 c-188 -179 -478 -266 -749
-222 -52 8 -65 15 -96 49 -61 68 -71 140 -44 322 18 121 54 288 66 311 5 10
26 22 47 27 32 9 394 201 446 237 16 11 27 8 80 -21 33 -19 66 -43 72 -55z
m-1188 -69 c-115 -134 -141 -167 -162 -209 -37 -73 -66 -179 -66 -240 0 -75
-10 -60 -20 30 l-8 73 0 -80 c0 -54 5 -88 16 -105 l15 -25 -23 20 c-35 30 -50
77 -50 153 0 87 22 174 61 236 17 27 23 43 14 36 -23 -19 -60 -95 -80 -164
-24 -81 -17 -293 10 -349 14 -27 23 -36 34 -31 9 3 32 8 52 11 36 5 37 4 63
-50 33 -67 46 -147 46 -292 0 -205 -42 -303 -160 -374 -53 -32 -84 -27 -135
20 -25 23 -45 40 -45 38 0 -2 20 -58 45 -124 25 -66 48 -137 51 -157 4 -21 10
-38 14 -38 17 0 41 73 38 116 l-3 45 53 18 c82 28 139 83 201 195 29 53 55 95
57 93 3 -2 5 -20 6 -40 1 -28 -11 -56 -55 -125 -73 -115 -77 -127 -77 -235 -1
-67 -6 -107 -21 -147 -11 -30 -30 -86 -41 -125 -54 -185 -80 -230 -157 -273
l-42 -24 49 74 c55 83 65 105 87 202 8 37 31 96 50 131 32 56 36 73 42 161 3
55 13 119 23 144 l16 45 -66 -65 c-64 -63 -74 -84 -30 -60 21 11 22 10 15 -22
-4 -23 -25 -51 -69 -93 l-63 -60 9 -45 c12 -59 2 -143 -23 -199 -11 -25 -46
-79 -78 -121 -74 -95 -89 -126 -141 -285 -24 -71 -44 -132 -46 -134 -2 -2 -24
4 -50 13 -26 9 -62 16 -79 16 l-32 0 4 223 c7 428 8 455 37 544 36 112 65 174
158 345 l80 147 7 128 c8 138 19 173 73 249 31 44 33 45 39 22 5 -17 7 -10 8
22 1 28 -11 81 -30 135 -54 153 -38 299 46 440 83 137 183 203 313 204 l54 1
-34 -39z m1399 -326 c34 -45 67 -105 60 -111 -5 -5 -94 126 -103 152 -8 23 1
14 43 -41z m971 -195 c48 -74 64 -118 112 -314 22 -92 59 -217 80 -278 22 -61
40 -114 40 -117 -1 -10 -52 91 -82 164 -16 39 -45 143 -64 232 -50 239 -69
280 -203 427 -39 43 -71 84 -71 92 0 20 145 -139 188 -206z m250 -775 c0 -16
-2 -15 -8 5 -11 34 -11 60 0 35 5 -11 8 -29 8 -40z m-2938 -848 c0 -2 -12 -14
-27 -28 l-28 -24 24 28 c23 25 31 32 31 24z m-50 -60 c0 -2 -10 -12 -22 -23
l-23 -19 19 23 c18 21 26 27 26 19z m-123 -204 c-43 -60 -85 -142 -96 -190 -9
-36 -9 -36 -10 -8 0 17 11 55 25 85 24 52 98 160 110 160 3 0 -10 -21 -29 -47z
m-240 -56 c-3 -8 -8 -39 -12 -70 -7 -51 -11 -58 -46 -82 -45 -29 -53 -19 -10
13 25 18 30 30 36 86 5 49 10 66 22 66 9 0 13 -6 10 -13z m3318 -177 c3 -6 -1
-17 -9 -26 -18 -18 -21 -61 -5 -66 13 -4 -15 -68 -30 -68 -13 0 -29 22 -36 52
-10 37 27 118 54 118 11 0 23 -5 26 -10z m1 -77 c-11 -11 -19 6 -11 24 8 17 8
17 12 0 3 -10 2 -21 -1 -24z m-2433 -132 c183 -51 289 -64 529 -63 120 0 275
5 345 12 222 20 535 72 561 92 9 8 12 5 13 -8 1 -15 2 -15 6 -3 3 14 72 44 80
35 1 -1 5 -16 9 -32 5 -26 2 -32 -21 -42 -36 -17 -53 -15 -58 6 -4 13 -5 11
-6 -5 0 -13 -2 -23 -4 -23 -1 0 -81 -13 -177 -29 -287 -49 -461 -64 -720 -65
-202 -1 -253 3 -360 22 -213 38 -410 103 -410 136 0 43 10 46 60 21 27 -14 96
-38 153 -54z m2383 -78 c-9 -125 -28 -275 -33 -269 -3 2 0 44 6 93 5 48 13
127 16 176 4 48 9 87 12 87 3 0 3 -39 -1 -87z m-836 45 c0 -2 7 -41 15 -88 8
-47 15 -121 14 -165 l-1 -80 -24 74 c-36 108 -58 242 -42 253 12 7 38 11 38 6z
m-1202 -158 c4 0 7 -45 7 -99 0 -55 -3 -97 -6 -95 -10 6 -27 85 -33 147 -4 50
-2 58 10 53 9 -3 19 -6 22 -6z"/>
<path d="M2030 4380 c-30 -17 -64 -35 -76 -41 -19 -10 -20 -14 -8 -47 9 -25
18 -36 30 -35 10 1 27 -3 37 -9 15 -8 20 -6 24 11 3 11 12 20 21 21 64 3 81 6
87 12 4 3 -15 10 -42 13 -74 11 -81 19 -38 45 30 19 46 22 91 17 30 -3 54 -3
54 -1 0 8 -90 44 -108 44 -9 0 -42 -14 -72 -30z"/>
<path d="M1750 4331 c0 -6 4 -13 10 -16 6 -3 7 1 4 9 -7 18 -14 21 -14 7z"/>
<path d="M1847 4290 c3 -11 7 -20 9 -20 2 0 4 9 4 20 0 11 -4 20 -9 20 -5 0
-7 -9 -4 -20z"/>
<path d="M1861 4133 c0 -6 -4 -20 -7 -30 -5 -14 -4 -15 5 -7 7 7 11 20 8 30
-3 11 -5 14 -6 7z"/>
<path d="M2440 4375 c-15 -19 -16 -81 0 -100 6 -8 10 -26 8 -41 -2 -17 2 -29
11 -32 9 -3 11 0 6 7 -4 7 2 21 14 32 23 22 19 40 -18 71 -24 20 -26 33 -9 44
8 5 9 2 5 -9 -4 -11 -1 -17 8 -17 7 0 21 -7 29 -16 21 -21 20 -11 -4 36 -22
43 -31 48 -50 25z"/>
<path d="M2514 3970 c3 -19 15 -108 26 -198 21 -173 36 -217 86 -262 26 -23
25 -22 -4 13 -37 43 -37 43 -51 207 -8 81 -20 151 -37 200 -13 41 -22 59 -20
40z"/>
<path d="M2411 3794 c0 -11 3 -14 6 -6 3 7 2 16 -1 19 -3 4 -6 -2 -5 -13z"/>
<path d="M2375 3663 c-46 -180 -45 -177 -34 -166 12 12 73 263 66 269 -2 3
-17 -44 -32 -103z"/>
<path d="M2445 3547 c-27 -114 -27 -117 -6 -73 18 37 38 143 29 152 -3 2 -13
-33 -23 -79z"/>
<path d="M2905 2425 c-60 -30 -103 -54 -94 -55 17 0 164 70 194 94 30 23 20
19 -100 -39z"/>
<path d="M3035 2397 c-186 -117 -248 -161 -237 -164 16 -6 87 34 184 104 66
47 121 95 107 92 -2 0 -26 -15 -54 -32z"/>
<path d="M2778 2294 c-38 -19 -68 -37 -68 -39 0 -5 139 62 149 71 14 13 -23
-2 -81 -32z"/>
<path d="M2095 2311 c-44 -11 -101 -40 -121 -62 -17 -19 -17 -19 19 -4 20 8
52 15 72 15 29 0 37 -5 45 -26 13 -34 13 -180 -1 -206 -14 -26 -84 -57 -129
-58 -45 -1 -26 -13 53 -33 75 -20 97 -39 97 -88 0 -44 -37 -82 -98 -99 -92
-25 -161 1 -197 77 -11 23 -23 42 -26 43 -11 0 10 -101 37 -182 14 -44 28 -78
30 -76 2 2 -2 32 -8 66 -13 68 -9 79 20 63 12 -6 68 -11 125 -11 83 0 106 -3
111 -15 3 -8 10 -53 17 -100 15 -116 4 -133 -101 -163 l-35 -10 49 -1 49 -1
-27 -21 c-40 -32 -23 -35 27 -6 42 25 49 26 173 22 l129 -4 -71 13 c-163 32
-184 68 -184 314 0 107 3 132 21 169 11 24 25 43 31 43 5 0 23 -9 39 -21 22
-16 37 -19 62 -14 61 14 60 22 -4 34 -74 15 -105 29 -138 65 -22 23 -24 35
-24 105 1 52 7 89 18 111 16 32 18 32 71 28 65 -6 59 4 -15 26 -59 17 -70 18
-116 7z"/>
<path d="M2833 1817 c-165 -154 -213 -212 -73 -90 116 101 230 213 215 212 -6
0 -69 -55 -142 -122z"/>
<path d="M1820 1915 c-7 -9 -11 -17 -9 -20 3 -2 10 5 17 15 14 24 10 26 -8 5z"/>
<path d="M2172 1820 c18 -45 66 -70 134 -70 54 0 149 24 159 40 4 6 -3 6 -20
0 -34 -13 -176 -13 -210 0 -14 5 -37 22 -51 37 l-26 28 14 -35z"/>
<path d="M2822 1713 c-27 -32 -85 -110 -128 -173 -43 -63 -111 -159 -151 -212
-41 -54 -83 -115 -96 -135 l-22 -38 29 23 c58 45 61 23 5 -36 -98 -103 -105
-118 -20 -42 112 99 150 150 216 284 30 62 90 169 133 237 43 68 81 130 85
137 18 28 -4 9 -51 -45z"/>
<path d="M1896 1480 c-34 -86 -12 -197 74 -375 32 -66 70 -133 85 -150 l26
-30 -25 40 c-40 63 -102 212 -130 309 -27 93 -33 167 -16 212 6 15 9 29 7 31
-3 2 -12 -14 -21 -37z"/>
<path d="M2138 1338 c7 -7 12 -31 12 -55 0 -24 5 -43 10 -43 6 0 10 12 10 28
0 15 7 39 14 55 l15 27 -37 0 c-28 0 -33 -3 -24 -12z"/>
<path d="M3048 1271 c-26 -20 -98 -63 -160 -96 -108 -56 -129 -80 -51 -55 21
7 62 25 91 41 28 16 52 25 52 19 0 -12 -156 -172 -215 -220 l-40 -32 61 31
c82 43 214 148 263 211 40 50 67 118 53 131 -4 3 -28 -10 -54 -30z"/>
<path d="M1726 629 c7 -12 180 -64 284 -86 136 -29 293 -23 544 21 115 19 212
39 215 42 3 4 -10 4 -29 1 -312 -55 -644 -49 -952 16 -37 8 -65 11 -62 6z"/>
<path d="M3245 498 c-11 -5 -72 -19 -135 -32 -63 -13 -106 -24 -95 -25 26 -1
243 44 252 52 11 12 -1 15 -22 5z"/>
<path d="M2820 424 c-63 -8 -182 -18 -265 -23 -141 -8 -144 -8 -52 -10 109 -1
301 14 417 34 100 17 43 16 -100 -1z"/>
<path d="M2656 2632 c-3 -5 8 -6 24 -4 22 3 32 -1 36 -13 18 -47 -50 -70 -73
-25 -12 24 -13 24 -13 3 0 -12 5 -25 10 -28 6 -4 8 -10 5 -15 -9 -15 64 -24
91 -11 30 13 33 60 6 84 -19 18 -77 23 -86 9z"/>
<path d="M1345 2310 c-9 -51 -14 -94 -12 -97 3 -2 12 37 22 87 9 51 14 94 12
97 -3 2 -12 -37 -22 -87z"/>
<path d="M1253 1809 c10 -14 24 -66 31 -115 l14 -89 1 68 c1 72 -14 122 -44
147 -18 14 -18 14 -2 -11z"/>
<path d="M1083 1630 c0 -30 2 -43 4 -27 2 15 2 39 0 55 -2 15 -4 2 -4 -28z"/>
<path d="M1021 1654 c0 -11 3 -14 6 -6 3 7 2 16 -1 19 -3 4 -6 -2 -5 -13z"/>
<path d="M1005 1603 c-7 -30 -18 -665 -10 -648 5 11 25 668 20 673 -1 2 -6
-10 -10 -25z"/>
<path d="M1081 1459 c1 -57 5 -117 9 -134 3 -16 5 29 2 100 -3 72 -6 132 -8
134 -2 2 -3 -43 -3 -100z"/>
<path d="M3989 2405 c17 -33 31 -51 31 -40 0 6 -10 21 -21 35 -13 17 -17 18
-10 5z"/>
<path d="M3620 2203 c0 -17 77 -82 105 -89 14 -3 37 -3 53 1 27 8 27 8 -11 16
-46 11 -95 35 -124 62 -13 11 -23 16 -23 10z"/>
<path d="M3884 1983 c-30 -41 -39 -62 -15 -33 23 27 44 60 38 60 -2 0 -12 -12
-23 -27z"/>
<path d="M4102 902 c-9 -31 -24 -51 -54 -72 -48 -35 -42 -39 13 -8 39 22 64
68 57 105 -2 11 -9 0 -16 -25z"/>
<path d="M4105 319 c-4 -6 -5 -12 -2 -15 2 -3 7 2 10 11 7 17 1 20 -8 4z"/>
<path d="M3736 209 c-9 -41 -19 -96 -22 -124 -4 -27 -11 -58 -16 -67 -7 -15
-4 -18 22 -18 16 0 29 3 28 7 -1 5 4 19 11 31 16 30 4 43 -16 17 -14 -18 -15
-16 -9 37 8 72 22 109 38 103 21 -8 51 -120 44 -160 -4 -22 -3 -35 4 -35 17 0
18 99 1 135 -5 11 -16 41 -25 66 -9 25 -22 54 -30 64 -12 16 -15 10 -30 -56z"/>
<path d="M1101 207 c-14 -6 -27 -19 -29 -27 -4 -12 -1 -11 15 3 11 9 32 17 47
17 16 0 25 4 21 10 -8 13 -25 12 -54 -3z"/>
<path d="M1080 150 c0 -6 7 -10 15 -10 8 0 15 2 15 4 0 2 -7 6 -15 10 -8 3
-15 1 -15 -4z"/>
<path d="M1128 153 c7 -3 16 -2 19 1 4 3 -2 6 -13 5 -11 0 -14 -3 -6 -6z"/>
<path d="M2745 114 c-11 -9 -65 -38 -119 -65 l-99 -49 48 0 c47 0 71 15 185
117 20 18 9 16 -15 -3z"/>
</g>
</svg>