<?xml version="1.0" standalone="no"?>
<!DOCTYPE svg PUBLIC "-//W3C//DTD SVG 20010904//EN"
 "http://www.w3.org/TR/2001/REC-SVG-20010904/DTD/svg10.dtd">
<svg version="1.0" xmlns="http://www.w3.org/2000/svg"
 width="512.000000pt" height="512.000000pt" viewBox="0 0 512.000000 512.000000"
 preserveAspectRatio="xMidYMid meet">
<metadata>
Created by potrace 1.16, written by Peter Selinger 2001-2019
</metadata>
<g transform="translate(0.000000,512.000000) scale(0.100000,-0.100000)"
fill="#000000" stroke="none">
<path d="M2275 4969 c-161 -37 -345 -122 -376 -174 -33 -53 -18 -148 31 -200
16 -17 20 -40 23 -139 4 -100 8 -123 26 -147 14 -18 21 -43 21 -72 0 -27 10
-62 26 -93 20 -39 104 -257 104 -270 0 -2 -39 -30 -87 -63 -80 -54 -148 -110
-243 -199 -35 -33 -36 -34 -136 -35 -97 -2 -104 -4 -185 -44 -105 -53 -165
-105 -222 -191 -70 -105 -89 -168 -95 -302 -4 -118 3 -165 43 -270 l17 -45
-35 -58 c-48 -80 -61 -140 -54 -256 7 -112 -4 -147 -70 -221 -109 -122 -163
-238 -177 -380 -4 -36 -14 -114 -22 -175 -7 -60 -21 -210 -29 -332 -8 -122
-22 -250 -30 -285 -9 -34 -14 -75 -11 -90 3 -16 -10 -112 -30 -215 -19 -102
-33 -196 -30 -209 4 -13 21 -40 38 -60 18 -20 53 -66 78 -102 41 -59 50 -67
109 -88 104 -37 135 -39 172 -14 26 19 30 27 24 49 -4 14 -6 42 -6 62 1 28 -5
41 -29 62 -35 32 -37 47 -10 72 18 17 21 17 55 1 34 -17 37 -16 68 1 46 27 49
74 6 132 -23 33 -33 60 -39 108 -9 74 -36 120 -92 160 -45 30 -47 47 -17 135
38 113 131 253 263 397 101 109 126 149 165 262 16 46 39 111 51 144 20 53 21
71 15 150 -12 136 -11 143 22 178 17 18 43 52 58 77 15 24 40 61 56 83 l28 39
16 -59 c9 -32 25 -80 36 -106 18 -42 19 -54 8 -107 -6 -33 -9 -81 -6 -106 4
-36 -1 -59 -20 -103 -35 -77 -41 -167 -17 -228 22 -57 20 -69 -16 -148 -16
-33 -37 -91 -46 -130 -9 -38 -55 -164 -102 -280 -235 -583 -282 -746 -282
-976 l0 -109 73 0 72 0 -2 122 -3 123 27 -93 c14 -51 28 -91 30 -88 2 2 -7 63
-21 135 -45 231 -32 376 55 601 l33 85 13 -64 c19 -95 154 -393 229 -506 70
-107 77 -138 44 -192 -10 -18 -41 -44 -67 -58 -39 -21 -42 -25 -18 -20 54 12
154 65 215 116 l60 50 0 -106 0 -105 75 0 c48 0 75 4 75 11 0 6 -11 52 -24
103 -23 85 -41 195 -32 185 3 -2 12 -36 21 -74 8 -39 25 -105 36 -147 l21 -78
38 0 39 0 -6 163 c-6 169 5 304 32 395 35 116 195 305 341 401 43 28 74 51 70
51 -5 0 -52 -21 -105 -47 -76 -38 -111 -63 -169 -120 l-72 -73 24 48 c27 53
89 118 157 162 58 39 42 38 -35 -2 -75 -40 -134 -98 -208 -204 -89 -128 -180
-194 -270 -196 -62 -1 -86 9 -109 45 l-20 32 7 -30 c6 -26 24 -81 49 -150 l7
-20 -14 20 c-41 55 -61 138 -62 250 0 96 4 120 28 188 15 43 25 81 22 84 -3 4
-7 4 -9 2 -13 -18 -88 -191 -95 -219 l-9 -35 -11 35 -12 35 5 -45 c2 -25 7
-72 11 -105 l7 -60 -25 30 c-60 74 -118 155 -148 208 -17 31 -34 57 -36 57 -2
0 10 -37 27 -83 43 -115 51 -144 47 -178 -3 -27 -7 -23 -46 50 -23 44 -53 109
-66 145 l-24 65 67 205 c36 113 69 206 74 206 18 0 101 -89 124 -133 13 -27
33 -86 43 -131 l18 -81 1 66 c1 36 -6 88 -14 114 -8 27 -13 50 -12 52 2 1 21
-6 43 -17 55 -27 140 -42 199 -34 28 3 131 26 230 51 268 67 386 69 560 9 11
-4 7 0 -8 9 -38 22 -108 43 -186 55 -81 14 -163 3 -386 -52 -119 -29 -193 -42
-246 -42 -72 -1 -82 2 -170 47 -52 26 -116 64 -144 85 -52 40 -56 52 -34 110
l9 24 41 -37 c64 -57 158 -114 218 -132 64 -18 179 -13 276 12 300 78 680 200
735 235 l45 29 9 -34 c4 -20 6 -42 2 -50 -9 -23 -116 -72 -243 -110 -135 -41
-152 -47 -103 -39 63 10 242 65 292 89 l49 24 11 -27 c93 -238 99 -263 105
-443 4 -123 2 -179 -12 -260 -22 -130 -21 -192 4 -347 11 -67 23 -174 27 -237
4 -66 11 -115 17 -115 16 0 1 260 -23 395 -24 132 -23 167 12 330 27 128 28
300 3 400 -9 39 -37 119 -61 178 -27 66 -44 124 -44 150 -1 23 -8 60 -16 82
-52 136 -57 157 -44 220 27 137 120 262 272 364 53 36 111 79 127 95 17 16 33
28 35 25 2 -2 21 -33 42 -69 58 -99 134 -169 237 -218 48 -23 87 -47 87 -54 0
-7 -9 -46 -20 -87 -11 -41 -20 -92 -20 -114 0 -21 -7 -64 -16 -95 -24 -82 -14
-164 37 -302 l43 -115 1 -150 c0 -128 -4 -162 -23 -230 -13 -44 -31 -88 -40
-98 -9 -10 -62 -43 -118 -73 -84 -45 -111 -66 -163 -125 -50 -58 -61 -77 -61
-106 0 -19 -12 -58 -26 -86 -34 -68 -23 -97 35 -97 42 0 57 13 93 79 9 17 24
31 33 31 20 0 21 -106 1 -154 -12 -28 -18 -32 -43 -29 -43 7 -56 -14 -44 -68
6 -24 20 -52 32 -61 27 -23 124 -25 132 -4 8 20 64 48 89 44 20 -3 20 -3 -2
-30 l-21 -28 26 0 c14 0 28 7 31 15 4 8 17 15 30 15 15 0 37 14 59 39 25 27
46 40 69 43 40 4 38 -6 -9 -45 -29 -24 -33 -25 -28 -7 8 30 -3 24 -26 -14 -26
-42 -26 -46 3 -46 39 0 186 164 186 208 0 8 11 46 25 85 14 38 31 115 37 171
7 66 18 110 30 127 10 15 25 60 33 100 22 107 29 125 121 329 45 102 94 225
108 273 36 124 44 274 21 390 -14 71 -15 96 -6 133 16 61 6 103 -39 172 -61
95 -63 110 -56 341 9 244 4 266 -92 438 -33 59 -80 149 -105 198 -25 50 -57
105 -71 124 -16 22 -26 48 -26 69 0 135 -110 339 -234 432 -83 63 -150 83
-280 82 l-109 -1 -80 71 c-99 87 -145 116 -323 206 -164 83 -219 128 -275 223
l-41 68 18 68 c21 83 14 131 -26 177 -24 27 -30 43 -30 79 0 66 -26 189 -49
234 -46 92 -191 184 -286 182 -27 -1 -68 -5 -90 -10z m180 -34 c29 -13 27 -13
-45 -14 -57 -1 -87 -7 -128 -26 -77 -36 -180 -113 -198 -148 -19 -35 -15 -98
9 -146 20 -41 4 -30 -34 21 -74 103 6 233 188 307 57 24 164 27 208 6z m69
-49 c17 -7 40 -23 51 -35 l19 -22 -28 10 c-33 13 -116 14 -135 2 -8 -5 4 -7
33 -4 49 6 124 -16 146 -42 10 -12 5 -13 -27 -9 -21 2 -32 1 -24 -2 21 -10
-53 -33 -141 -44 -91 -11 -145 -36 -187 -87 l-31 -37 10 34 c19 66 106 129
178 130 17 0 32 5 32 11 0 15 -75 2 -126 -22 -58 -27 -84 -60 -109 -134 -22
-63 -23 -64 -29 -33 -18 90 37 187 129 229 22 10 34 19 27 19 -22 0 -86 -37
-114 -67 -15 -15 -34 -45 -43 -66 -16 -38 -23 -137 -11 -156 10 -15 37 -2 81
40 76 72 174 91 222 43 26 -26 27 -41 7 -125 -5 -22 0 -30 29 -48 27 -16 40
-35 52 -72 10 -28 19 -48 22 -45 3 2 -2 27 -11 54 -12 36 -27 57 -52 74 -26
17 -33 28 -28 43 3 11 8 48 11 82 6 66 1 73 -66 94 -21 6 -17 7 21 8 26 1 78
12 115 26 37 14 72 24 79 21 19 -7 45 -95 51 -174 5 -66 4 -74 -14 -87 -27
-19 -45 -66 -41 -101 4 -27 5 -26 16 14 7 24 22 52 33 63 20 20 20 20 47 -13
22 -26 27 -41 27 -88 -1 -72 -42 -150 -80 -150 -31 0 -33 -6 -25 -65 l7 -50 2
43 c1 38 4 42 26 42 13 0 28 7 33 16 15 26 68 -125 86 -242 l15 -99 -5 95 c-3
52 -8 104 -10 116 -4 15 9 7 49 -31 37 -35 97 -73 188 -120 164 -84 235 -130
319 -210 36 -34 73 -67 83 -72 13 -7 -32 -9 -141 -8 l-160 2 -69 49 c-37 26
-91 72 -119 100 -53 54 -64 57 -64 18 0 -37 -39 -150 -61 -178 -12 -15 -18
-30 -14 -34 10 -10 63 56 76 97 11 33 12 33 26 15 7 -10 32 -38 54 -61 47 -49
63 -40 -128 -73 -330 -56 -436 -111 -540 -278 -37 -59 -48 -86 -51 -129 -3
-39 -14 -71 -38 -111 -65 -107 -73 -203 -24 -298 16 -32 30 -60 30 -61 0 -2
-17 -3 -37 -3 -21 0 -81 -9 -133 -20 -118 -24 -141 -25 -72 -1 114 39 173 118
171 231 -1 56 -2 61 -10 34 -25 -87 -122 -181 -212 -205 -67 -18 -183 -7 -242
23 -96 50 -155 134 -155 220 0 54 14 75 84 123 31 21 54 40 53 42 -5 5 -95
-46 -102 -58 -4 -5 -11 -9 -16 -9 -18 0 29 76 70 113 48 43 44 47 -15 12 -52
-30 -82 -71 -99 -133 -12 -43 -13 -44 -16 -17 -1 17 -1 39 0 50 3 36 -16 2
-33 -57 -9 -32 -19 -58 -22 -58 -11 0 9 126 28 178 11 29 35 73 54 97 19 25
30 45 26 45 -17 0 -91 -112 -112 -168 -12 -31 -24 -91 -28 -132 l-6 -75 -12
40 c-21 67 -15 130 20 230 5 13 2 12 -8 -5 -29 -46 -49 -134 -56 -235 l-6
-100 -18 40 c-10 22 -24 73 -31 115 l-14 75 2 -77 c2 -69 1 -75 -11 -53 -40
78 -34 195 16 295 54 109 196 218 307 235 l40 7 -30 -20 c-16 -10 -39 -29 -50
-42 -14 -16 -3 -12 38 15 80 53 132 57 210 16 64 -33 78 -25 20 13 -82 53
-178 67 -283 41 -24 -6 -24 -6 -6 9 48 39 186 44 286 10 25 -9 79 -20 120 -25
41 -5 128 -16 193 -24 65 -9 122 -13 127 -10 15 9 12 42 -15 144 -14 52 -23
96 -21 98 7 7 71 -173 77 -217 l6 -45 2 40 c0 22 -6 65 -14 95 l-14 55 25 -30
c41 -50 64 -108 64 -160 l0 -48 25 23 c31 29 48 86 36 126 -4 16 -22 55 -40
85 -36 64 -44 115 -10 62 12 -18 22 -33 24 -33 1 0 20 28 43 63 22 34 79 104
126 156 82 90 107 134 105 186 0 20 -1 20 -8 0 -7 -17 -9 -16 -15 10 -15 62
-48 166 -52 162 -2 -2 5 -35 16 -73 37 -127 28 -150 -98 -259 -114 -100 -146
-116 -225 -114 -87 2 -95 6 -106 46 -18 66 22 92 117 78 37 -5 44 -4 35 6 -19
19 -105 38 -130 28 -24 -9 -53 -3 -53 11 0 13 51 19 152 17 120 -2 115 11 -6
17 -48 2 -90 6 -93 9 -3 4 -2 14 2 24 7 17 8 17 15 -2 8 -19 9 -19 9 -1 1 26
30 56 53 56 22 0 33 23 22 48 -7 15 -8 14 -11 -5 -3 -13 -11 -23 -18 -23 -8 0
-30 -8 -50 -17 -62 -30 -69 -17 -66 123 1 65 -3 133 -8 149 -9 29 -9 29 -10
-12 -1 -46 -12 -60 -33 -41 -7 7 -20 14 -28 16 -8 2 -32 14 -53 28 -32 21 -38
29 -33 52 3 15 8 48 12 74 10 73 21 82 80 70 27 -6 50 -9 52 -8 1 2 -2 15 -8
30 -14 39 -12 121 4 160 31 74 117 142 211 167 39 11 149 2 189 -15z m-474
-42 c-43 -39 -73 -113 -63 -156 l5 -23 -21 25 c-20 24 -27 73 -15 104 12 30
19 16 17 -31 -2 -45 -1 -46 6 -12 8 40 41 91 74 114 39 27 38 16 -3 -21z m62
-93 c-9 -16 -18 -28 -21 -26 -4 5 27 55 34 55 2 0 -4 -13 -13 -29z m-152 -76
l25 -30 -27 24 c-16 14 -28 29 -28 34 0 6 1 8 3 6 1 -2 13 -17 27 -34z m104
-420 c3 -8 1 -15 -4 -15 -6 0 -10 7 -10 15 0 8 2 15 4 15 2 0 6 -7 10 -15z
m53 -130 l-13 -80 -22 49 c-22 49 -28 92 -14 112 4 5 18 18 32 27 24 17 25 17
28 -5 1 -13 -4 -59 -11 -103z m32 -89 c9 -10 8 -16 -4 -26 -13 -11 -15 -8 -15
14 0 30 3 32 19 12z m-84 -253 c-22 -20 -86 -78 -143 -129 -123 -113 -174
-129 -61 -20 64 62 223 185 239 185 3 0 -13 -16 -35 -36z m1698 -171 c141 -69
267 -255 291 -430 12 -82 -35 -235 -93 -302 -18 -21 -17 -15 7 35 68 141 81
248 43 358 -73 211 -244 357 -418 357 -60 0 -54 -16 9 -23 109 -13 239 -102
314 -214 56 -85 77 -160 71 -263 -7 -116 -26 -165 -136 -339 -10 -17 -73 -8
-94 13 -7 8 -22 49 -32 92 -58 252 -145 426 -272 546 -49 45 -120 88 -145 88
-7 0 9 -11 36 -25 123 -60 255 -245 300 -421 8 -32 20 -103 25 -156 6 -53 15
-108 21 -122 16 -42 5 -30 -36 39 -38 66 -237 285 -297 327 -19 14 13 -30 77
-107 60 -72 116 -138 124 -147 14 -17 12 -17 -39 -2 -82 24 -135 50 -203 98
-66 47 -189 163 -251 236 l-38 45 23 -42 c13 -24 48 -74 77 -113 29 -38 49
-70 44 -70 -5 0 -60 24 -122 54 -63 30 -141 59 -173 65 -87 16 -113 12 -31 -5
86 -17 140 -40 247 -104 104 -62 85 -64 -41 -4 -111 53 -195 84 -225 83 -12 0
8 -10 45 -23 36 -12 111 -47 167 -76 101 -53 115 -71 48 -65 -17 1 -21 0 -8
-2 12 -2 22 -8 22 -13 0 -18 -99 -92 -170 -128 -68 -34 -80 -37 -148 -34 -61
2 -79 -1 -103 -19 -33 -23 -37 -43 -12 -57 14 -8 13 -11 -8 -23 -31 -18 -267
-19 -325 -1 -57 17 -104 51 -128 91 -45 77 -9 237 65 294 35 25 112 56 152 59
12 1 -9 4 -48 7 l-70 6 -3 33 c-6 66 67 174 158 232 27 17 81 43 119 56 57 20
315 68 521 98 l45 7 -30 -19 c-47 -29 -103 -97 -116 -140 l-11 -39 -24 24
c-31 31 -76 50 -139 57 l-50 6 61 -18 c71 -21 117 -48 159 -92 17 -18 43 -41
59 -52 l28 -21 -13 24 c-17 33 -16 128 4 164 22 42 75 91 120 110 28 11 66 15
141 14 57 -1 109 2 116 6 28 17 78 24 161 22 74 -3 96 -8 152 -35z m393 -724
c56 -72 139 -205 162 -260 21 -53 23 -182 3 -288 l-14 -75 -12 36 c-18 50 -87
162 -104 167 -9 3 -12 0 -8 -9 3 -8 16 -39 29 -69 13 -30 35 -76 51 -102 15
-26 35 -80 44 -120 18 -82 33 -117 74 -168 44 -55 46 -87 10 -174 -20 -49 -31
-91 -31 -123 0 -100 -46 -208 -137 -324 -81 -103 -106 -139 -99 -146 3 -3 39
27 79 68 85 84 137 177 167 295 21 80 31 104 54 123 12 10 16 5 22 -35 19
-131 -25 -291 -125 -451 -38 -61 -79 -129 -89 -150 -20 -38 -74 -203 -67 -203
2 0 21 30 41 68 21 37 65 110 98 162 33 52 78 127 98 165 62 113 33 28 -53
-162 -83 -179 -130 -310 -148 -408 -6 -31 -21 -73 -32 -92 -16 -26 -24 -61
-30 -127 -9 -103 -60 -284 -86 -304 -22 -16 -33 -15 -33 3 0 8 -5 15 -11 15
-6 0 -8 17 -5 48 4 36 3 40 -3 17 -5 -16 -9 -23 -10 -15 -1 8 -11 -1 -21 -21
-17 -32 -112 -119 -129 -119 -3 0 -13 5 -21 10 -13 9 -12 13 6 28 15 13 20 26
17 48 -4 22 4 42 31 79 20 28 49 75 65 106 29 55 67 167 59 175 -3 2 -10 -15
-17 -38 -23 -74 -87 -202 -124 -245 -19 -24 -37 -46 -39 -51 -6 -14 -75 -52
-95 -52 -30 0 -41 19 -48 80 -7 60 -32 148 -47 167 -8 10 -17 9 -39 -4 -24
-14 -29 -24 -29 -55 0 -25 -5 -41 -15 -44 -8 -4 -12 -10 -9 -15 9 -15 -24 -59
-45 -59 -10 0 -24 7 -31 15 -18 21 16 61 37 44 16 -14 18 2 2 18 -9 9 -9 20 0
44 6 17 11 43 11 56 0 30 92 139 135 159 l30 15 -28 -25 c-46 -43 -12 -29 45
17 29 24 74 57 100 75 26 18 52 41 58 52 18 34 49 181 70 338 18 132 19 164 9
233 -6 43 -14 77 -18 75 -3 -2 -7 51 -9 117 -4 151 11 229 78 395 28 67 52
141 55 165 3 25 2 35 -3 24 -5 -13 -8 -1 -9 36 -1 30 -8 68 -17 84 l-16 28 2
-40 c1 -22 1 -65 -1 -95 l-3 -55 -13 60 c-7 33 -18 73 -24 88 -6 16 -11 45
-11 64 0 54 -12 32 -19 -34 l-6 -58 -93 -3 c-76 -2 -101 1 -140 18 l-47 21 28
-29 c45 -46 118 -81 186 -88 70 -8 72 -24 2 -24 -141 0 -293 168 -382 422 -39
109 -85 320 -74 337 14 24 91 22 185 -4 121 -33 310 -58 328 -43 23 19 130
185 143 223 l14 37 23 -29 c13 -15 43 -54 68 -85z m-1371 -92 c24 -17 14 -43
-22 -57 -35 -13 -73 3 -73 30 0 37 59 54 95 27z m-1320 -63 c22 -37 47 -85 56
-108 23 -56 42 -189 35 -239 -15 -101 -85 -193 -165 -217 -52 -15 -87 -5 -106
31 -27 52 -19 121 34 283 51 155 82 267 75 267 -11 0 -57 -113 -103 -252 -40
-124 -51 -170 -51 -223 0 -104 41 -179 105 -191 41 -7 110 11 160 43 38 25 39
25 20 3 -30 -34 -114 -70 -164 -70 -35 0 -49 6 -76 33 -50 50 -79 155 -79 284
0 83 -2 100 -13 91 -10 -8 -13 -5 -13 13 0 46 21 98 51 129 37 37 45 37 62 3
l14 -26 18 55 c21 69 71 158 88 158 6 0 30 -30 52 -67z m1675 -37 c0 -9 -22
-21 -57 -31 -32 -9 -62 -18 -68 -20 -13 -6 84 4 108 11 9 3 17 1 17 -5 0 -6
-19 -15 -42 -21 -86 -22 -86 -22 -33 -35 62 -16 95 -52 95 -103 0 -45 -20 -76
-62 -98 -42 -22 -66 -13 -172 63 -50 36 -97 68 -103 70 -7 3 -11 9 -8 13 8 14
104 -12 178 -49 66 -32 73 -33 60 -14 -34 52 -160 122 -223 124 -20 1 -26 3
-15 6 97 21 182 47 240 72 81 35 85 36 85 17z m-984 -81 c-50 -54 -64 -175
-28 -244 22 -42 23 -48 11 -108 -12 -58 -11 -69 9 -128 20 -60 20 -71 9 -152
l-12 -88 -5 75 -5 75 -9 -59 c-7 -46 -5 -75 10 -132 17 -71 17 -74 -1 -94 -10
-11 -24 -20 -30 -20 -7 0 -18 -7 -25 -15 -10 -12 -8 -23 16 -58 23 -34 29 -57
35 -122 3 -44 7 -75 7 -70 17 107 35 181 48 205 17 28 17 29 -5 47 l-22 18 26
25 c26 24 32 25 157 25 l131 0 30 37 c25 31 31 49 33 95 l3 58 -9 -45 c-16
-76 -69 -100 -175 -81 -78 14 -98 30 -131 97 -25 52 -26 59 -13 83 25 44 57
48 172 21 158 -37 194 -28 269 62 58 71 206 220 241 243 28 18 29 18 49 -3
l22 -21 -73 -81 -73 -80 80 55 c44 30 85 55 90 55 12 0 42 -61 42 -85 0 -40
-32 -74 -111 -120 -44 -25 -79 -49 -76 -51 2 -2 23 3 47 11 62 22 63 21 55
-37 -18 -147 -73 -218 -221 -288 -49 -24 -111 -58 -139 -76 -43 -30 -50 -32
-58 -18 -5 9 -7 37 -3 62 7 54 1 51 -23 -14 -10 -26 -38 -71 -61 -99 -39 -47
-116 -212 -105 -223 8 -9 46 30 85 89 46 66 97 113 148 135 46 19 445 154 447
151 4 -5 25 -122 25 -137 0 -36 -140 -93 -370 -150 -68 -17 -190 -53 -270 -80
-242 -80 -303 -85 -405 -35 -44 21 -51 29 -53 57 -1 18 -7 58 -12 88 -5 30
-14 108 -21 173 -10 105 -10 120 5 142 28 43 100 56 158 31 12 -5 21 0 33 18
15 23 15 27 -4 68 l-21 43 6 -39 5 -39 -62 7 c-76 9 -94 18 -114 56 -46 89 18
182 114 166 68 -12 86 -11 86 3 0 8 -13 23 -28 35 -22 16 -40 20 -93 18 l-65
-2 -15 35 c-30 73 -13 144 42 170 40 19 85 10 134 -25 29 -20 30 -21 30 -2 0
26 -55 100 -85 114 -20 9 -33 8 -65 -7 -21 -10 -47 -26 -56 -36 -23 -26 -39
-24 -63 7 -41 52 -20 97 69 154 56 36 178 79 227 80 l32 0 -23 -25z m147 -10
c63 -27 137 -48 258 -71 46 -9 87 -18 91 -20 19 -12 -66 -115 -115 -141 -39
-20 -95 -12 -168 21 -33 16 -72 26 -101 26 -68 0 -94 13 -108 54 -14 45 -4 99
26 131 29 31 47 31 117 0z m412 -25 c-3 -5 -30 -9 -58 -9 l-52 2 40 7 c61 11
77 11 70 0z m-925 -105 c0 -64 20 -117 55 -150 32 -30 32 -33 26 -95 l-6 -65
-18 40 c-10 22 -17 54 -15 70 1 17 -5 41 -14 55 -9 14 -20 41 -26 60 -13 44
-22 155 -11 138 5 -7 9 -31 9 -53z m914 26 c3 -5 -1 -14 -10 -22 -8 -7 -20
-21 -25 -32 -9 -16 -5 -15 27 7 73 50 78 29 7 -35 -107 -97 -173 -122 -233
-89 l-35 19 51 1 c63 0 113 33 164 108 35 52 44 59 54 43z m120 -64 c22 -12
41 -27 43 -32 2 -6 -46 -60 -107 -120 l-110 -110 0 35 c0 19 7 47 14 62 15 27
15 27 -9 12 -47 -30 -36 6 17 59 29 28 45 46 35 38 -10 -8 -20 -12 -22 -9 -6
6 81 88 92 88 5 0 26 -10 47 -23z m-461 -116 c115 -47 148 -54 192 -42 50 14
65 1 65 -54 0 -55 -35 -100 -91 -116 -31 -10 -55 -9 -121 4 -46 9 -103 18
-127 21 -63 6 -102 48 -108 113 -4 39 -1 53 17 76 29 37 79 36 173 -2z m-1171
-181 c15 -36 38 -106 53 -155 25 -85 26 -95 16 -182 -6 -50 -16 -104 -21 -118
-6 -15 -6 -24 -1 -20 14 8 38 79 56 167 15 71 20 81 59 113 37 30 110 65 136
65 16 0 32 -71 25 -111 -10 -57 -48 -94 -129 -126 -38 -16 -75 -38 -84 -51
-15 -22 -14 -22 12 -12 15 5 45 10 67 10 38 0 39 -1 39 -35 0 -72 -50 -135
-168 -214 -34 -23 -74 -59 -88 -80 -24 -38 -74 -156 -57 -136 5 6 26 32 47 58
35 44 92 88 134 105 13 4 11 -1 -6 -24 -91 -118 -197 -299 -222 -377 l-12 -39
-19 32 c-11 17 -24 48 -28 68 l-9 37 -1 -33 c-1 -33 19 -83 46 -114 8 -9 12
-25 9 -35 -4 -13 8 -30 44 -61 60 -52 75 -78 90 -162 7 -38 21 -76 37 -97 19
-25 22 -33 10 -33 -8 0 -25 -9 -38 -20 l-24 -20 30 15 c40 20 55 19 55 -4 0
-27 -28 -53 -53 -49 -29 4 -49 45 -36 72 9 19 9 20 -4 3 -8 -9 -17 -17 -21
-17 -3 0 -22 24 -40 52 -19 29 -60 78 -92 108 -59 57 -62 53 -11 -12 l29 -38
-24 0 c-12 0 -30 -5 -38 -11 -11 -8 -2 -9 33 -4 30 4 47 2 47 -4 0 -6 -12 -11
-26 -11 -14 0 -23 -4 -20 -9 6 -9 -25 -38 -70 -69 -17 -11 -15 -12 14 -6 31 5
45 -8 20 -20 -10 -5 -10 -7 0 -12 6 -3 12 -21 12 -39 l0 -34 -25 24 c-28 29
-43 31 -71 10 -18 -14 -18 -14 3 -8 39 9 73 -5 73 -30 0 -20 8 -25 52 -34 44
-9 49 -8 33 3 -10 8 -27 14 -37 14 -24 0 -23 27 2 40 46 24 94 -22 65 -62 -25
-36 -19 -65 14 -73 16 -3 36 -14 45 -24 15 -16 15 -20 2 -30 -12 -10 -22 -7
-53 17 -21 16 -60 37 -88 46 -38 13 -59 28 -89 66 -21 27 -42 48 -46 45 -13
-8 -52 28 -65 59 -14 35 -6 140 20 278 8 44 15 101 15 127 0 25 7 71 15 101 9
30 19 118 24 195 5 77 15 216 22 309 12 161 14 166 24 120 12 -52 38 -109 55
-119 14 -8 12 10 -5 75 -9 35 -15 102 -15 181 0 191 18 237 158 409 23 28 45
64 49 78 7 24 8 22 13 -18 3 -25 18 -74 32 -110z m2188 75 c-7 -9 -50 -45 -95
-80 -82 -64 -161 -153 -211 -236 -16 -27 -23 -35 -19 -19 10 37 65 126 108
175 30 35 211 175 226 175 2 0 -2 -7 -9 -15z m-1523 -197 l-15 -73 2 87 c1 74
3 85 15 73 11 -11 11 -24 -2 -87z m6 -231 c-3 -50 0 -119 5 -152 5 -33 9 -61
7 -63 -2 -2 -19 29 -39 69 -45 89 -47 143 -10 206 14 24 29 41 34 38 5 -3 6
-47 3 -98z m2049 -4 c-10 -16 -24 -37 -30 -48 -8 -14 -11 -16 -12 -5 0 21 37
80 51 80 5 0 2 -12 -9 -27z m-26 -225 c-1 -46 2 -108 6 -138 7 -54 7 -55 -7
-20 -14 37 -19 156 -9 209 4 17 7 31 8 31 2 0 2 -37 2 -82z m-2043 -30 c13
-18 32 -53 41 -78 10 -25 24 -56 33 -69 18 -28 12 -25 -62 29 -76 56 -80 63
-65 110 7 22 17 40 21 40 4 0 19 -15 32 -32z m-755 -940 c21 -45 23 -65 5 -87
-43 -53 -83 36 -46 102 8 14 30 7 41 -15z m42 -218 c0 -24 -11 -31 -38 -23
-24 6 -29 32 -10 51 15 15 48 -3 48 -28z m-145 -79 c51 -10 108 -29 90 -30
-26 -1 -159 39 -173 53 -10 8 -25 30 -35 48 -16 29 -14 28 25 -14 35 -37 53
-48 93 -57z m2996 -114 c-13 -13 -14 5 -3 43 l7 25 3 -29 c2 -16 -1 -33 -7
-39z m-321 -10 c0 -8 11 -24 25 -37 l24 -23 -20 -28 c-22 -31 -45 -36 -73 -16
-16 12 -15 15 6 64 22 51 38 67 38 40z m-70 -41 c0 -16 -21 -56 -30 -56 -12 0
-30 41 -23 53 4 7 53 10 53 3z"/>
<path d="M2678 4450 c-26 -42 -31 -80 -13 -100 11 -12 13 -20 6 -25 -6 -3 -11
-13 -11 -22 0 -13 5 -12 25 7 30 28 32 53 6 79 -27 27 -10 52 18 27 18 -17 21
-17 21 -3 0 9 -6 20 -14 24 -7 4 -15 15 -18 23 -3 11 -8 8 -20 -10z"/>
<path d="M2029 4406 c19 -20 36 -36 38 -36 10 0 -33 53 -51 62 -14 7 -10 -1
13 -26z"/>
<path d="M2183 4425 c-3 -9 -3 -18 -1 -21 3 -3 8 4 11 16 6 23 -1 27 -10 5z"/>
<path d="M2323 4370 c-53 -39 -106 -61 -122 -51 -7 5 -17 24 -22 42 -8 30 -8
28 -4 -14 3 -30 1 -46 -5 -42 -6 3 -10 4 -10 2 0 -3 16 -14 35 -25 27 -17 41
-19 66 -12 20 6 38 6 50 0 24 -14 76 -12 85 2 4 7 3 8 -5 4 -13 -8 -51 2 -51
13 0 5 12 11 28 14 15 3 36 13 47 21 19 15 18 15 -15 16 -20 0 -47 -7 -60 -16
-18 -11 -15 -7 8 15 24 23 42 31 70 31 l37 1 -25 14 c-38 21 -62 18 -107 -15z"/>
<path d="M2200 4360 c0 -5 5 -10 11 -10 5 0 7 5 4 10 -3 6 -8 10 -11 10 -2 0
-4 -4 -4 -10z"/>
<path d="M2720 4351 c0 -10 -10 -30 -21 -45 -26 -33 -18 -45 10 -17 18 18 31
81 16 81 -3 0 -5 -8 -5 -19z"/>
<path d="M2508 4195 c-27 -29 -48 -58 -48 -65 0 -10 -3 -10 -17 1 -15 11 -16
11 -5 -1 7 -8 13 -45 14 -89 l1 -76 6 65 c6 64 28 111 83 182 37 48 15 36 -34
-17z"/>
<path d="M2370 4069 c30 -30 56 -54 58 -53 11 7 -25 48 -66 75 l-47 32 55 -54z"/>
<path d="M2651 3979 c-7 -22 -36 -97 -66 -167 -83 -198 -124 -345 -85 -306 13
13 126 336 151 433 21 77 21 110 0 40z"/>
<path d="M2851 3841 c-14 -118 -11 -151 7 -79 18 73 23 132 14 162 -6 24 -11
8 -21 -83z"/>
<path d="M1899 3446 c-63 -18 -132 -61 -198 -123 l-56 -53 140 72 c77 40 165
82 195 95 l55 23 -45 -1 c-25 0 -66 -6 -91 -13z"/>
<path d="M2060 3178 c19 -6 55 -16 80 -24 38 -12 46 -12 59 0 12 13 11 15 -10
20 -13 2 -55 7 -94 9 -58 4 -64 3 -35 -5z"/>
<path d="M2010 2864 c-30 -13 -47 -24 -37 -24 18 0 97 36 97 45 0 3 -1 4 -2 4
-2 -1 -28 -12 -58 -25z"/>
<path d="M1598 2817 c17 -20 92 -57 118 -57 10 0 -10 14 -46 32 -89 44 -87 43
-72 25z"/>
<path d="M3430 3592 c0 -6 19 -13 43 -17 23 -4 70 -18 105 -30 70 -25 69 -9
-1 27 -45 22 -147 37 -147 20z"/>
<path d="M3656 3522 c5 -5 33 -28 62 -51 103 -84 191 -226 211 -341 l10 -55
-4 58 c-11 121 -100 274 -207 353 -33 24 -65 44 -71 44 -7 0 -7 -3 -1 -8z"/>
<path d="M3240 3227 c0 -21 45 -102 76 -137 36 -40 93 -81 68 -49 -6 8 -39 52
-74 99 -69 95 -70 96 -70 87z"/>
<path d="M2768 3163 c6 -2 18 -2 25 0 6 3 1 5 -13 5 -14 0 -19 -2 -12 -5z"/>
<path d="M3670 2733 c0 -6 18 -65 41 -130 50 -144 127 -306 169 -353 30 -34
30 -33 -5 23 -47 75 -85 161 -141 316 -47 128 -63 166 -64 144z"/>
<path d="M4297 2605 c5 -16 8 -86 7 -155 -1 -107 0 -117 8 -70 12 69 6 209
-10 235 -11 17 -11 16 -5 -10z"/>
<path d="M4181 2415 c0 -5 8 -41 19 -80 11 -38 18 -54 15 -34 -6 39 -33 130
-34 114z"/>
<path d="M4198 2160 c88 -160 107 -315 58 -467 -28 -86 -63 -146 -151 -253
-53 -65 -116 -165 -135 -214 -15 -41 -4 -31 28 27 17 30 65 94 107 143 56 66
91 120 135 209 79 161 94 210 87 290 -3 47 -2 63 7 58 6 -3 4 2 -5 13 -9 10
-37 57 -63 104 -26 47 -59 99 -73 115 -24 28 -23 27 5 -25z"/>
<path d="M4041 2094 c0 -11 3 -14 6 -6 3 7 2 16 -1 19 -3 4 -6 -2 -5 -13z"/>
<path d="M4357 1905 c9 -19 18 -33 21 -31 4 5 -26 66 -33 66 -3 0 3 -16 12
-35z"/>
<path d="M4114 1826 c-141 -199 -172 -293 -164 -486 3 -50 5 -35 10 60 10 168
43 248 184 450 27 38 48 72 45 74 -2 2 -36 -42 -75 -98z"/>
<path d="M4144 963 c-50 -111 -82 -155 -139 -189 -62 -36 -50 -42 19 -9 38 18
62 37 73 58 23 43 93 220 89 224 -2 2 -21 -36 -42 -84z"/>
<path d="M4090 758 l-65 -72 43 24 c23 13 49 34 57 47 14 22 37 74 32 73 -1
-1 -31 -33 -67 -72z"/>
<path d="M4156 770 c-11 -35 -32 -87 -48 -116 -15 -30 -28 -63 -28 -74 0 -11
-11 -50 -25 -87 -14 -37 -24 -74 -22 -83 6 -28 55 84 62 143 4 31 11 60 16 63
17 10 46 78 59 135 18 80 8 93 -14 19z"/>
<path d="M4023 529 c-12 -46 -20 -85 -18 -87 7 -7 47 136 43 153 -2 9 -13 -21
-25 -66z"/>
<path d="M3766 563 c-16 -19 -45 -43 -65 -53 -42 -22 -35 -26 13 -6 18 8 46
30 61 50 36 47 29 53 -9 9z"/>
<path d="M3576 435 c-9 -26 -7 -32 5 -12 6 10 9 21 6 23 -2 3 -7 -2 -11 -11z"/>
<path d="M3806 380 c-22 -56 -19 -65 5 -11 11 24 18 46 15 48 -2 2 -11 -14
-20 -37z"/>
<path d="M3978 348 c-28 -43 -69 -130 -58 -123 6 3 26 38 45 76 35 69 40 89
13 47z"/>
<path d="M4082 335 c0 -16 2 -22 5 -12 2 9 2 23 0 30 -3 6 -5 -1 -5 -18z"/>
<path d="M4037 326 c-4 -10 -7 -30 -6 -44 1 -25 1 -25 10 6 11 37 7 67 -4 38z"/>
<path d="M3772 288 c-10 -30 -10 -31 3 -14 13 17 21 46 12 46 -1 0 -8 -15 -15
-32z"/>
<path d="M2804 2107 c-136 -86 -220 -166 -289 -278 -54 -86 -54 -87 -6 -49 23
19 51 50 63 70 50 83 106 144 194 211 52 40 94 73 94 75 0 6 0 6 -56 -29z"/>
<path d="M1945 1663 c16 -92 28 -137 32 -125 6 15 -26 162 -34 162 -3 0 -2
-17 2 -37z"/>
<path d="M2542 1650 c0 -14 2 -19 5 -12 2 6 2 18 0 25 -3 6 -5 1 -5 -13z"/>
<path d="M2315 2566 c66 -17 142 -42 169 -54 27 -12 51 -20 54 -17 16 16 -252
106 -312 104 -18 0 17 -13 89 -33z"/>
<path d="M2471 2266 c10 -9 69 -36 69 -32 0 6 -55 36 -66 36 -4 0 -5 -2 -3 -4z"/>
<path d="M1185 2025 c4 -11 13 -47 21 -80 14 -60 14 -60 9 -11 -7 64 -1 57 24
-29 11 -39 20 -59 20 -45 1 41 -17 92 -50 140 -17 25 -28 36 -24 25z"/>
<path d="M995 1888 c-12 -69 -8 -207 9 -310 17 -101 18 -178 2 -178 -5 0 -6
-3 -3 -7 12 -11 48 29 110 122 78 118 107 186 114 265 7 84 -3 75 -17 -15 -6
-39 -22 -93 -34 -121 -21 -46 -142 -234 -150 -234 -2 0 -1 20 1 45 3 24 0 88
-7 142 -6 54 -12 151 -13 215 0 65 -1 118 -3 118 -1 0 -5 -19 -9 -42z"/>
<path d="M1072 1338 c-26 -69 -45 -139 -39 -144 3 -3 19 39 35 93 34 105 36
137 4 51z"/>
<path d="M872 1111 c-1 -80 -8 -134 -22 -181 -26 -88 -50 -247 -50 -336 0 -59
4 -75 25 -104 14 -20 25 -27 25 -18 0 8 -8 22 -19 32 -14 13 -18 32 -19 84 -1
68 27 252 54 352 10 38 14 90 12 170 l-4 115 -2 -114z"/>
<path d="M1082 1115 c-17 -37 -14 -45 4 -12 9 16 14 31 11 33 -2 2 -9 -7 -15
-21z"/>
<path d="M961 999 c-1 -27 5 -53 14 -65 11 -14 14 -15 9 -3 -3 10 -9 39 -14
65 l-8 49 -1 -46z"/>
<path d="M1000 896 c0 -2 8 -10 18 -17 15 -13 16 -12 3 4 -13 16 -21 21 -21
13z"/>
<path d="M1095 760 c21 -22 41 -40 44 -40 3 0 -13 18 -34 40 -21 22 -41 40
-44 40 -3 0 13 -18 34 -40z"/>
<path d="M3070 1239 c24 -69 40 -165 40 -244 0 -81 14 -102 35 -53 19 47 19
117 0 190 -14 54 -50 145 -40 103 15 -70 14 -74 -9 -21 -33 78 -51 95 -26 25z"/>
<path d="M2705 1169 c-32 -5 -75 -14 -95 -20 -65 -21 -189 -91 -232 -131 l-43
-39 39 25 c22 14 42 24 44 22 2 -2 -12 -26 -31 -53 -31 -43 -81 -143 -72 -143
2 0 28 35 58 78 128 182 250 252 441 252 44 0 77 2 75 4 -11 9 -130 12 -184 5z"/>
<path d="M2908 1153 c7 -3 16 -2 19 1 4 3 -2 6 -13 5 -11 0 -14 -3 -6 -6z"/>
<path d="M3003 938 c36 -51 72 -108 81 -126 10 -19 20 -32 22 -29 11 11 -144
247 -163 247 -2 0 25 -42 60 -92z"/>
<path d="M2980 888 c0 -3 18 -57 40 -119 23 -62 50 -152 60 -200 26 -116 41
-329 33 -461 -5 -94 -4 -108 10 -108 47 0 26 520 -26 665 -15 41 -116 235
-117 223z"/>
<path d="M2726 689 c-9 -34 -55 -136 -102 -226 -91 -177 -140 -290 -168 -391
-23 -84 -15 -89 14 -10 12 35 60 134 107 221 103 191 137 272 159 378 19 97
14 113 -10 28z"/>
<path d="M2983 640 c25 -106 39 -234 39 -360 l1 -145 14 70 c19 91 10 224 -22
351 -14 53 -28 100 -31 103 -4 3 -4 -5 -1 -19z"/>
<path d="M2607 241 c-47 -119 -81 -241 -69 -241 7 0 123 352 118 357 -2 2 -24
-50 -49 -116z"/>
<path d="M1521 34 c0 -11 3 -14 6 -6 3 7 2 16 -1 19 -3 4 -6 -2 -5 -13z"/>
<path d="M1728 33 c7 -3 16 -2 19 1 4 3 -2 6 -13 5 -11 0 -14 -3 -6 -6z"/>
</g>
</svg>